SplineFontDB: 3.0
FontName: Farbod-Regular
FullName: Farbod Regular
FamilyName: Farbod
Weight: Regular
Copyright: Copyright (c) 2016 Copyright Holder (info@font-store.ir), with Reserved Font Name "Farbod"
UComments: "2015-5-13: Created with FontForge (http://fontforge.org)"
Version: Version:3.1.0;RFB:1.2.5;Building:2016-04-26 10:52:26.376719
FONDName: RITA
ItalicAngle: 0
UnderlinePosition: 500
UnderlineWidth: 59
Ascent: 800
Descent: 500
InvalidEm: 0
sfntRevision: 0x00010000
LayerCount: 2
Layer: 0 0 "Back" 1
Layer: 1 0 "Fore" 0
PreferredKerning: 4
XUID: [1021 828 -1901974348 32649]
StyleMap: 0x0040
FSType: 8
OS2Version: 3
OS2_WeightWidthSlopeOnly: 0
OS2_UseTypoMetrics: 0
CreationTime: 1431477301
ModificationTime: 1461651746
PfmFamily: 17
TTFWeight: 400
TTFWidth: 5
LineGap: 0
VLineGap: 0
Panose: 2 0 5 3 0 0 0 0 0 0
OS2TypoAscent: 800
OS2TypoAOffset: 0
OS2TypoDescent: -500
OS2TypoDOffset: 0
OS2TypoLinegap: 0
OS2WinAscent: 1100
OS2WinAOffset: 0
OS2WinDescent: 700
OS2WinDOffset: 0
HheadAscent: 1100
HheadAOffset: 0
HheadDescent: -700
HheadDOffset: 0
OS2SubXSize: 780
OS2SubYSize: 839
OS2SubXOff: -107
OS2SubYOff: 168
OS2SupXSize: 780
OS2SupYSize: 839
OS2SupXOff: 369
OS2SupYOff: 575
OS2StrikeYSize: 59
OS2StrikeYPos: 310
OS2Vendor: 'RITA'
OS2CodePages: 00000040.00000000
OS2UnicodeRanges: 80002003.80002000.00000008.00000000
MacStyle: 0
Lookup: 4 1 0 "ccmpGlyphCompositionDecompositioninArabiclookup5" { "ccmpGlyphCompositionDecompositioninArabiclookup5 subtable"  } ['ccmp' ('arab' <'dflt' > 'DFLT' <'dflt' > ) ]
Lookup: 1 1 0 "isolIsolatedFormsinLatinlookup1" { "isolIsolatedFormsinLatinlookup1 subtable"  } ['isol' ('arab' <'dflt' > 'DFLT' <'dflt' > ) ]
Lookup: 1 1 0 "finaTerminalFormsinArabiclookup3" { "finaTerminalFormsinArabiclookup3 subtable"  } ['fina' ('arab' <'dflt' > 'DFLT' <'dflt' > ) ]
Lookup: 1 1 0 "mediMedialFormsinArabiclookup2" { "mediMedialFormsinArabiclookup2 subtable"  } ['medi' ('arab' <'dflt' > 'DFLT' <'dflt' > ) ]

StartChar: _.alef.isol
Encoding: 65536 -1 0
GlifName: _.alef.isol
Width: 219
VWidth: 1304
GlyphClass: 2
Flags: HMW
LayerCount: 2
Fore
SplineSet
64 575 m 1
 64 606 95 661 123 700 c 1
 135 690 l 1
 154 180 l 2
 155 163 155 146 155 130 c 0
 155 69 147 14 97 -25 c 1
 87 -16 l 1
 96 -7 98 20 98 53 c 0
 98 82 97 114 95 139 c 2
 64 575 l 1
EndSplineSet
Colour: ffda6b
EndChar

StartChar: _.alef.fina
Encoding: 65537 -1 1
GlifName: _.alef.fina
Width: 282
VWidth: 1304
GlyphClass: 2
Flags: HMW
LayerCount: 2
Fore
SplineSet
64 575 m 1
 64 606 95 661 123 700 c 1
 135 690 l 1
 155 152 l 1
 183 106 233 100 282 100 c 1
 282 -0 l 1
 155 0 100 61 95 139 c 2
 64 575 l 1
EndSplineSet
Colour: ffda6b
EndChar

StartChar: _.alef_kotah.isol
Encoding: 65538 -1 2
GlifName: _.alef_kotah.isol
Width: 366
VWidth: 1304
GlyphClass: 2
Flags: HMW
LayerCount: 2
Fore
SplineSet
197 101 m 2
 302 101 l 1
 302 0 l 1
 220 0 l 1
 187 2 77 -12 71 120 c 0
 70 148 64 524 64 524 c 1
 143 556 l 1
 143 556 140 230 140 170 c 0
 140 169 140 169 140 168 c 0
 140 153 142 101 197 101 c 2
EndSplineSet
Colour: ffda6b
EndChar

StartChar: _.alef_kotah.fina
Encoding: 65539 -1 3
GlifName: _.alef_kotah.fina
Width: 139
VWidth: 1304
GlyphClass: 2
Flags: HMW
LayerCount: 2
Fore
SplineSet
73 -6 m 1
 64 527 l 1
 139 557 l 1
 137 0 l 1
 73 -6 l 1
EndSplineSet
Colour: ffda6b
EndChar

StartChar: _.beh.isol
Encoding: 65540 -1 4
GlifName: _.beh.isol
Width: 830
VWidth: 1304
GlyphClass: 2
UnlinkRmOvrlpSave: 1
Flags: HMW
LayerCount: 2
Fore
SplineSet
64 167 m 0
 64 205 73 250 93 303 c 1
 124 288 l 1
 115 261 110 236 110 215 c 0
 110 114 209 75 358 75 c 0
 481 75 611 106 700 145 c 1
 694 186 678 230 651 271 c 1
 699 369 l 1
 744 301 766 241 766 185 c 0
 766 147 756 110 735 75 c 1
 735 74 l 1
 656 25 488 -25 339 -25 c 0
 338 -25 336 -25 335 -25 c 0
 190 -25 64 24 64 167 c 0
EndSplineSet
Colour: ffda6b
EndChar

StartChar: _.beh.fina
Encoding: 65541 -1 5
GlifName: _.beh.fina
Width: 900
VWidth: 1304
GlyphClass: 2
UnlinkRmOvrlpSave: 1
Flags: HMW
LayerCount: 2
Fore
SplineSet
358 75 m 0
 488 75 622 110 712 150 c 1
 710 182 709 214 707 240 c 1
 751 253 l 1
 755 205 l 2
 762 125 827 100 900 100 c 1
 900 -0 l 1
 818 0 766 26 739 64 c 0
 737 68 735 70 733 74 c 1
 655 25 488 -25 339 -25 c 0
 338 -25 336 -25 335 -25 c 0
 190 -25 64 24 64 167 c 0
 64 205 73 250 93 303 c 1
 124 288 l 1
 115 261 110 236 110 215 c 0
 110 114 209 75 358 75 c 0
EndSplineSet
Colour: ffda6b
EndChar

StartChar: _.beh.medi
Encoding: 65542 -1 6
GlifName: _.beh.medi
Width: 314
VWidth: 1304
GlyphClass: 2
UnlinkRmOvrlpSave: 1
Flags: HMW
LayerCount: 2
Fore
SplineSet
-50 48 m 0
 -50 75 -27 100 -1 100 c 0
 46 100 101 108 137 144 c 1
 159 266 l 1
 204 256 l 1
 191 133 l 1
 229 105 284 100 314 100 c 1
 314 -0 l 1
 270 0 200 9 158 58 c 1
 119 10 57 0 -1 -0 c 0
 -26 0 -50 23 -50 48 c 0
EndSplineSet
Colour: ffda6b
EndChar

StartChar: _.beh.init
Encoding: 65543 -1 7
GlifName: _.beh.init
Width: 264
VWidth: 1197
GlyphClass: 1
UnlinkRmOvrlpSave: 1
Flags: HMW
LayerCount: 2
Fore
SplineSet
-50 49 m 0
 -50 76 -28 100 -2 100 c 0
 59 100 105 113 136 144 c 1
 130 185 112 229 85 271 c 1
 133 369 l 1
 177 301 200 241 200 185 c 0
 200 157 195 130 184 104 c 0
 157 30 91 0 -1 -0 c 0
 -25 0 -50 24 -50 49 c 0
EndSplineSet
Colour: ffda6b
EndChar

StartChar: _.heh.isol
Encoding: 65544 -1 8
GlifName: _.heh.isol
Width: 680
VWidth: 1304
GlyphClass: 1
UnlinkRmOvrlpSave: 1
Flags: HMW
LayerCount: 2
Fore
SplineSet
64 247 m 1
 88 302 124 375 186 375 c 0
 197 375 209 373 222 368 c 0
 287 343 423 286 600 285 c 1
 553 196 l 1
 318 178 150 22 150 -101 c 0
 150 -186 229 -256 421 -256 c 0
 475 -256 538 -250 611 -238 c 1
 616 -260 l 1
 560 -315 460 -349 362 -349 c 0
 223 -349 89 -280 89 -103 c 0
 89 -87 90 -69 92 -51 c 0
 107 55 183 165 320 228 c 1
 270 243 226 257 193 268 c 0
 176 274 163 277 151 277 c 0
 127 277 111 263 89 232 c 1
 64 247 l 1
EndSplineSet
Colour: ffda6b
EndChar

StartChar: _.heh.fina
Encoding: 65545 -1 9
GlifName: _.heh.fina
Width: 620
VWidth: 1304
GlyphClass: 1
UnlinkRmOvrlpSave: 1
Flags: HMW
LayerCount: 2
Fore
SplineSet
64 247 m 1
 88 302 124 375 186 375 c 0
 197 375 209 373 222 368 c 0
 287 343 423 286 600 285 c 1
 553 196 l 1
 526 194 500 189 474 183 c 1
 495 117 546 100 608 100 c 2
 620 100 l 1
 620 -0 l 1
 608 -0 l 2
 479 0 437 87 427 171 c 1
 260 119 149 -2 149 -102 c 0
 149 -187 229 -256 421 -256 c 0
 475 -256 538 -250 611 -238 c 1
 616 -260 l 1
 560 -315 460 -349 362 -349 c 0
 223 -349 89 -280 89 -103 c 0
 89 -87 90 -69 92 -51 c 0
 107 55 183 165 320 228 c 1
 270 243 226 257 193 268 c 0
 176 274 163 277 151 277 c 0
 127 277 111 263 89 232 c 1
 64 247 l 1
EndSplineSet
Colour: ffda6b
EndChar

StartChar: _.heh.medi
Encoding: 65546 -1 10
GlifName: _.heh.medi
Width: 602
VWidth: 1304
GlyphClass: 1
UnlinkRmOvrlpSave: 1
Flags: HMW
LayerCount: 2
Fore
SplineSet
-50 50 m 0
 -50 76 -26 100 0 100 c 2
 37 100 l 2
 167 100 258 156 349 204 c 1
 276 224 218 248 175 262 c 0
 158 268 145 271 133 271 c 0
 109 271 93 257 71 226 c 1
 46 241 l 1
 70 296 106 369 168 369 c 0
 179 369 191 367 204 362 c 0
 269 337 405 270 582 269 c 1
 535 180 l 1
 528 180 522 180 515 180 c 0
 497 179 478 176 461 171 c 1
 484 114 532 100 590 100 c 2
 602 100 l 1
 602 -0 l 1
 590 -0 l 2
 471 0 426 73 412 152 c 1
 301 100 200 0 61 -0 c 2
 0 -0 l 2
 -26 0 -50 24 -50 50 c 0
EndSplineSet
Colour: ffda6b
EndChar

StartChar: _.heh.init
Encoding: 65547 -1 11
GlifName: _.heh.init
Width: 646
VWidth: 1304
GlyphClass: 1
UnlinkRmOvrlpSave: 1
Flags: HMW
LayerCount: 2
Fore
SplineSet
-50 50 m 0
 -50 76 -26 100 0 100 c 2
 37 100 l 2
 167 100 258 156 349 204 c 1
 276 224 218 248 175 262 c 0
 158 268 145 271 133 271 c 0
 109 271 93 257 71 226 c 1
 46 241 l 1
 70 296 106 369 168 369 c 0
 179 369 191 367 204 362 c 0
 269 337 405 270 582 269 c 1
 535 180 l 1
 528 180 522 180 515 180 c 0
 359 171 242 0 61 -0 c 2
 0 -0 l 2
 -26 0 -50 24 -50 50 c 0
EndSplineSet
Colour: ffda6b
EndChar

StartChar: _.sin.isol
Encoding: 65548 -1 12
GlifName: _.sin.isol
Width: 1116
VWidth: 1304
GlyphClass: 1
UnlinkRmOvrlpSave: 1
Flags: HMW
LayerCount: 2
Fore
SplineSet
1052 146 m 0
 1052 81 1007 -21 949 -21 c 0
 943 -21 938 -19 932 -17 c 2
 798 39 l 1
 775 13 739 0 707 -0 c 0
 675 0 632 11 601 31 c 1
 602 14 601 1 601 -5 c 0
 600 -169 441 -267 296 -267 c 0
 175 -267 64 -199 64 -46 c 0
 64 6 77 68 107 141 c 0
 109 147 116 149 122 149 c 0
 134 149 147 142 147 132 c 0
 147 131 146 129 146 128 c 0
 127 77 119 34 119 -3 c 0
 119 -124 210 -171 311 -171 c 0
 400 -171 496 -134 544 -80 c 1
 545 -77 547 -70 547 -59 c 0
 547 -23 534 54 482 151 c 1
 531 250 l 1
 538 235 545 222 551 208 c 0
 583 151 640 100 708 100 c 0
 772 101 786 141 798 191 c 2
 811 246 l 1
 852 237 l 1
 828 128 l 1
 980 70 l 1
 980 74 980 78 980 83 c 0
 980 124 970 173 948 218 c 1
 1007 309 l 1
 1037 248 1052 194 1052 146 c 0
EndSplineSet
Colour: ffda6b
EndChar

StartChar: _.sin.fina
Encoding: 65549 -1 13
GlifName: _.sin.fina
Width: 1181
VWidth: 1304
GlyphClass: 1
UnlinkRmOvrlpSave: 1
Flags: HMW
LayerCount: 2
Fore
SplineSet
64 -46 m 0
 64 6 77 68 107 141 c 0
 109 147 116 149 122 149 c 0
 134 149 147 142 147 132 c 0
 147 131 146 129 146 128 c 0
 127 77 119 33 119 -4 c 0
 119 -124 209 -171 310 -171 c 0
 399 -171 495 -134 543 -80 c 0
 545 -77 546 -69 546 -58 c 0
 546 -21 533 54 481 151 c 1
 529 250 l 1
 536 235 544 222 550 208 c 0
 582 151 639 100 707 100 c 0
 772 101 786 141 798 191 c 1
 810 246 l 1
 852 237 l 1
 827 124 l 1
 921 88 l 2
 933 84 942 82 950 82 c 0
 981 82 992 108 1000 140 c 2
 1025 246 l 1
 1066 237 l 1
 1045 143 l 1
 1083 105 1148 100 1181 100 c 1
 1181 -0 l 1
 1137 0 1069 8 1027 55 c 1
 1017 15 995 -17 949 -17 c 0
 932 -17 912 -13 888 -3 c 2
 794 37 l 1
 772 12 737 0 705 -0 c 0
 673 0 632 11 601 31 c 1
 601 14 599 1 599 -5 c 0
 599 -169 441 -267 296 -267 c 0
 175 -267 64 -199 64 -46 c 0
EndSplineSet
Colour: ffda6b
EndChar

StartChar: _.sin.medi
Encoding: 65550 -1 14
GlifName: _.sin.medi
Width: 732
VWidth: 1304
GlyphClass: 1
UnlinkRmOvrlpSave: 1
Flags: HMW
LayerCount: 2
Fore
SplineSet
-50 50 m 0
 -49 76 -26 100 0 100 c 0
 7 100 15 99 22 99 c 0
 72 99 132 105 153 191 c 1
 165 246 l 1
 207 237 l 1
 185 136 l 1
 206 110 235 100 263 100 c 0
 327 101 341 141 353 191 c 2
 366 246 l 1
 407 237 l 1
 382 123 l 1
 472 88 l 2
 484 84 494 82 502 82 c 0
 533 82 543 108 551 140 c 2
 577 246 l 1
 617 237 l 1
 596 143 l 1
 634 105 699 100 732 100 c 1
 732 -0 l 1
 688 0 620 8 578 55 c 1
 568 15 546 -17 500 -17 c 0
 483 -17 463 -13 439 -3 c 2
 349 36 l 1
 326 13 291 0 260 -0 c 0
 217 0 181 16 153 50 c 1
 125 22 72 0 29 -0 c 2
 -1 -0 l 2
 -26 0 -50 24 -50 50 c 0
EndSplineSet
Colour: ffda6b
EndChar

StartChar: _.sin.init
Encoding: 65551 -1 15
GlifName: _.sin.init
Width: 669
VWidth: 1304
GlyphClass: 1
UnlinkRmOvrlpSave: 1
Flags: HMW
LayerCount: 2
Fore
SplineSet
605 146 m 0
 605 81 559 -21 501 -21 c 0
 495 -21 490 -19 484 -17 c 2
 351 39 l 1
 328 13 292 0 260 -0 c 0
 217 0 181 16 153 50 c 1
 125 22 72 0 29 -0 c 2
 -1 -0 l 2
 -26 0 -50 24 -50 50 c 0
 -49 76 -26 100 0 100 c 0
 7 100 15 99 22 99 c 0
 72 99 132 105 152 191 c 2
 165 246 l 1
 207 237 l 1
 185 136 l 1
 206 110 235 100 263 100 c 0
 327 101 341 141 353 191 c 2
 366 246 l 1
 407 237 l 1
 383 127 l 1
 532 70 l 1
 532 74 533 78 533 83 c 0
 533 124 522 173 500 218 c 1
 559 309 l 1
 589 248 605 194 605 146 c 0
EndSplineSet
Colour: ffda6b
EndChar

StartChar: _.sad.isol
Encoding: 65552 -1 16
GlifName: _.sad.isol
Width: 1210
VWidth: 1304
GlyphClass: 1
UnlinkRmOvrlpSave: 1
Flags: HMW
LayerCount: 2
Fore
SplineSet
972 345 m 0
 1072 345 1146 234 1146 175 c 0
 1146 142 1140 100 1119 75 c 0
 1071 26 923 -9 791 -9 c 0
 715 -9 644 2 600 29 c 1
 601 13 600 1 600 -5 c 0
 599 -169 441 -267 296 -267 c 0
 175 -267 64 -199 64 -46 c 0
 64 6 77 68 107 141 c 0
 109 147 114 149 121 149 c 0
 133 149 147 142 147 132 c 0
 147 131 147 129 146 128 c 0
 127 77 119 34 119 -3 c 0
 119 -124 210 -171 311 -171 c 0
 400 -171 496 -134 544 -80 c 1
 545 -77 546 -70 546 -59 c 0
 546 -23 534 54 482 151 c 1
 530 250 l 1
 537 235 545 222 551 208 c 0
 573 172 614 122 663 108 c 1
 749 196 855 345 972 345 c 0
704 98 m 1
 731 94 760 92 791 92 c 0
 892 92 1007 113 1080 139 c 1
 1063 175 1024 219 988 236 c 0
 971 245 954 249 936 249 c 0
 850 249 763 156 704 98 c 1
EndSplineSet
Colour: ffda6b
EndChar

StartChar: _.sad.fina
Encoding: 65553 -1 17
GlifName: _.sad.fina
Width: 1252
VWidth: 1304
GlyphClass: 1
UnlinkRmOvrlpSave: 1
Flags: HMW
LayerCount: 2
Fore
SplineSet
972 345 m 0
 1072 345 1146 234 1146 175 c 0
 1146 160 1145 141 1141 124 c 1
 1178 103 1225 100 1252 100 c 1
 1252 -0 l 1
 1208 0 1138 8 1096 56 c 1
 1033 17 907 -9 792 -9 c 0
 716 -9 644 2 600 29 c 1
 601 13 600 1 600 -5 c 0
 599 -169 441 -267 296 -267 c 0
 175 -267 64 -199 64 -46 c 0
 64 6 77 68 107 141 c 0
 109 147 114 149 121 149 c 0
 133 149 147 142 147 132 c 0
 147 131 147 129 146 128 c 0
 127 77 119 34 119 -3 c 0
 119 -124 210 -171 311 -171 c 0
 400 -171 496 -134 544 -80 c 1
 545 -77 546 -70 546 -59 c 0
 546 -23 534 54 482 151 c 1
 530 250 l 1
 537 235 545 222 551 208 c 0
 573 172 614 122 663 108 c 1
 749 196 855 345 972 345 c 0
704 98 m 1
 731 94 760 92 791 92 c 0
 892 92 1007 113 1080 139 c 1
 1063 175 1024 219 988 236 c 0
 971 245 954 249 936 249 c 0
 850 249 763 156 704 98 c 1
EndSplineSet
Colour: ffda6b
EndChar

StartChar: _.sad.medi
Encoding: 65554 -1 18
GlifName: _.sad.medi
Width: 814
VWidth: 1304
GlyphClass: 1
UnlinkRmOvrlpSave: 1
Flags: HMW
LayerCount: 2
Fore
SplineSet
353 -9 m 0
 246 -9 179 5 152 49 c 1
 122 22 71 0 29 -0 c 2
 -1 -0 l 2
 -26 0 -50 24 -50 50 c 0
 -49 76 -26 100 0 100 c 0
 7 100 15 99 22 99 c 0
 61 99 107 103 135 146 c 1
 136 172 140 201 145 234 c 1
 190 248 l 1
 187 225 186 206 186 189 c 0
 186 143 198 120 225 107 c 1
 312 195 417 345 535 345 c 0
 635 345 708 234 708 175 c 0
 708 160 707 141 703 124 c 1
 740 103 787 100 814 100 c 1
 814 -0 l 1
 770 0 701 8 659 56 c 1
 596 17 468 -9 353 -9 c 0
264 97 m 1
 287 93 316 93 350 92 c 0
 451 92 568 112 643 139 c 1
 625 175 587 219 551 236 c 0
 534 245 516 249 499 249 c 0
 413 249 324 154 264 97 c 1
EndSplineSet
Colour: ffda6b
EndChar

StartChar: _.sad.init
Encoding: 65555 -1 19
GlifName: _.sad.init
Width: 772
VWidth: 1304
GlyphClass: 1
UnlinkRmOvrlpSave: 1
Flags: HMW
LayerCount: 2
Fore
SplineSet
352 -9 m 0
 245 -9 179 5 152 49 c 1
 122 22 71 0 29 -0 c 2
 -1 -0 l 2
 -26 0 -50 24 -50 50 c 0
 -49 76 -26 100 0 100 c 0
 7 100 15 99 22 99 c 0
 61 99 107 103 135 146 c 1
 136 172 140 201 145 234 c 1
 190 248 l 1
 187 225 186 206 186 189 c 0
 186 143 198 120 225 107 c 1
 312 195 417 345 535 345 c 0
 635 345 708 234 708 175 c 0
 708 142 702 100 681 75 c 0
 633 25 484 -9 352 -9 c 0
264 97 m 1
 287 93 316 93 350 92 c 0
 451 92 568 112 643 139 c 1
 625 175 587 219 551 236 c 0
 534 245 516 249 499 249 c 0
 413 249 324 154 264 97 c 1
EndSplineSet
Colour: ffda6b
EndChar

StartChar: _.ta.isol
Encoding: 65556 -1 20
GlifName: _.ta.isol
Width: 758
VWidth: 1304
GlyphClass: 1
UnlinkRmOvrlpSave: 1
Flags: HMW
LayerCount: 2
Fore
SplineSet
521 345 m 0
 621 345 694 234 694 175 c 0
 694 142 688 100 667 75 c 0
 619 26 454 -9 308 -9 c 0
 216 -9 130 5 87 38 c 1
 71 58 64 94 64 122 c 0
 64 147 69 166 79 166 c 0
 83 166 89 161 95 152 c 0
 110 130 141 114 180 104 c 0
 181 104 181 104 182 104 c 0
 243 104 259 190 259 266 c 0
 259 269 259 271 259 274 c 2
 254 575 l 2
 253 606 285 656 312 695 c 1
 324 683 l 1
 324 228 l 1
 386 290 450 345 521 345 c 0
249 95 m 1
 268 93 288 92 309 92 c 0
 421 92 549 113 628 140 c 1
 611 176 573 219 537 236 c 0
 520 245 503 248 486 248 c 0
 399 248 309 153 249 95 c 1
EndSplineSet
Colour: ffda6b
EndChar

StartChar: _.ta.fina
Encoding: 65557 -1 21
GlifName: _.ta.fina
Width: 800
VWidth: 1304
GlyphClass: 1
UnlinkRmOvrlpSave: 1
Flags: HMW
LayerCount: 2
Fore
SplineSet
521 345 m 0
 621 345 694 234 694 175 c 0
 694 160 693 141 689 124 c 1
 726 103 773 100 800 100 c 1
 800 -0 l 1
 756 0 687 9 645 58 c 1
 579 18 436 -9 308 -9 c 0
 215 -9 130 5 87 38 c 1
 71 58 64 94 64 122 c 0
 64 147 69 166 79 166 c 0
 83 166 89 161 95 152 c 0
 110 130 141 114 180 104 c 0
 181 104 181 104 182 104 c 0
 243 104 259 190 259 266 c 0
 259 269 259 271 259 274 c 2
 254 575 l 2
 253 606 285 656 312 695 c 1
 324 683 l 1
 324 228 l 1
 386 290 450 345 521 345 c 0
249 95 m 1
 268 93 288 92 309 92 c 0
 421 92 549 113 628 140 c 1
 611 176 573 219 537 236 c 0
 520 245 503 248 486 248 c 0
 399 248 309 153 249 95 c 1
EndSplineSet
Colour: ffda6b
EndChar

StartChar: _.ta.medi
Encoding: 65558 -1 22
GlifName: _.ta.medi
Width: 637
VWidth: 1304
GlyphClass: 1
UnlinkRmOvrlpSave: 1
Flags: HMW
LayerCount: 2
Fore
SplineSet
358 345 m 0
 457 345 531 234 531 176 c 0
 531 160 530 141 526 124 c 1
 563 103 610 100 637 100 c 1
 637 -0 l 1
 593 0 524 8 482 56 c 1
 396 1 214 0 105 -0 c 0
 96 0 87 0 79 -0 c 2
 -3 -0 l 1
 -27 1 -50 23 -50 48 c 0
 -50 74 -28 99 -3 100 c 1
 21 100 l 1
 38 102 50 110 60 120 c 1
 88 153 95 219 95 274 c 2
 90 575 l 2
 89 606 121 656 148 695 c 1
 161 683 l 1
 161 228 l 1
 223 290 287 345 358 345 c 0
90 100 m 1
 182 100 360 103 466 139 c 1
 449 175 410 219 374 236 c 0
 357 245 339 248 322 248 c 0
 237 248 149 158 90 100 c 1
EndSplineSet
Colour: ffda6b
EndChar

StartChar: _.ta.init
Encoding: 65559 -1 23
GlifName: _.ta.init
Width: 595
VWidth: 1304
GlyphClass: 1
UnlinkRmOvrlpSave: 1
Flags: HMW
LayerCount: 2
Fore
SplineSet
358 345 m 0
 457 345 531 234 531 176 c 0
 531 142 525 100 504 75 c 0
 432 2 220 0 101 -0 c 0
 93 0 86 0 79 -0 c 2
 -3 -0 l 1
 -27 1 -50 23 -50 48 c 0
 -50 74 -28 99 -3 100 c 1
 21 100 l 1
 38 102 50 110 60 120 c 1
 88 153 95 219 95 274 c 2
 90 575 l 2
 89 606 121 656 148 695 c 1
 161 683 l 1
 161 228 l 1
 223 290 287 345 358 345 c 0
90 100 m 1
 182 100 360 103 466 139 c 1
 449 175 410 219 374 236 c 0
 357 245 339 248 322 248 c 0
 237 248 149 158 90 100 c 1
EndSplineSet
Colour: ffda6b
EndChar

StartChar: _.ein.isol
Encoding: 65560 -1 24
GlifName: _.ein.isol
Width: 655
VWidth: 1304
GlyphClass: 1
UnlinkRmOvrlpSave: 1
Flags: HMW
LayerCount: 2
Fore
SplineSet
64 -109 m 0
 64 -93 66 -75 68 -57 c 0
 82 43 150 145 271 209 c 1
 229 256 203 301 203 350 c 0
 203 379 213 410 233 443 c 0
 278 514 332 538 382 538 c 0
 443 538 498 503 522 475 c 1
 508 436 l 1
 477 448 441 454 406 454 c 0
 360 454 316 444 285 425 c 1
 279 415 276 401 276 388 c 0
 276 344 309 287 361 247 c 1
 430 269 524 288 582 292 c 1
 550 198 l 1
 459 186 401 168 347 145 c 0
 211 86 125 -18 125 -107 c 0
 125 -192 204 -262 397 -262 c 0
 451 -262 514 -256 586 -244 c 1
 591 -266 l 1
 535 -321 435 -355 337 -355 c 0
 198 -355 64 -286 64 -109 c 0
EndSplineSet
Colour: ffda6b
EndChar

StartChar: _.ein.fina
Encoding: 65561 -1 25
GlifName: _.ein.fina
Width: 601
VWidth: 1304
GlyphClass: 1
UnlinkRmOvrlpSave: 1
Flags: HMW
LayerCount: 2
Fore
SplineSet
125 -106 m 0
 125 -197 207 -262 396 -262 c 0
 450 -262 513 -256 586 -244 c 1
 591 -266 l 1
 535 -321 435 -355 337 -355 c 0
 198 -355 64 -286 64 -109 c 0
 64 -93 66 -75 68 -57 c 0
 82 43 150 145 272 210 c 1
 219 266 170 311 113 311 c 0
 101 311 89 309 76 305 c 1
 101 413 l 1
 147 434 239 486 341 486 c 0
 425 486 509 457 509 374 c 0
 509 356 505 335 496 311 c 0
 484 279 454 229 400 183 c 1
 462 135 526 100 590 100 c 2
 601 100 l 1
 601 -0 l 1
 590 -0 l 2
 483 0 404 67 336 140 c 1
 208 81 125 -20 125 -106 c 0
208 359 m 1
 246 326 290 279 338 236 c 1
 404 264 450 299 450 329 c 0
 450 370 378 385 320 385 c 0
 288 385 247 374 208 359 c 1
EndSplineSet
Colour: ffda6b
EndChar

StartChar: _.ein.medi
Encoding: 65562 -1 26
GlifName: _.ein.medi
Width: 553
VWidth: 1304
GlyphClass: 1
UnlinkRmOvrlpSave: 1
Flags: HMW
LayerCount: 2
Fore
SplineSet
-50 50 m 0
 -49 75 -25 99 -2 100 c 1
 26 100 l 2
 80 100 140 113 193 130 c 1
 130 177 80 219 28 219 c 1
 56 343 l 1
 102 365 193 406 296 406 c 0
 380 406 464 377 464 294 c 0
 464 276 460 255 451 231 c 0
 440 204 411 163 364 125 c 1
 411 109 466 100 536 100 c 2
 553 100 l 1
 553 -0 l 1
 536 -0 l 2
 431 0 351 31 285 70 c 1
 215 29 128 0 28 -0 c 2
 0 -0 l 1
 -25 1 -50 24 -50 50 c 0
111 267 m 1
 168 245 212 202 276 165 c 1
 351 200 403 238 403 256 c 0
 403 290 328 305 275 305 c 0
 221 305 168 287 111 267 c 1
EndSplineSet
Colour: ffda6b
EndChar

StartChar: _.ein.init
Encoding: 65563 -1 27
GlifName: _.ein.init
Width: 488
VWidth: 1304
GlyphClass: 1
UnlinkRmOvrlpSave: 1
Flags: HMW
LayerCount: 2
Fore
SplineSet
-50 50 m 0
 -50 75 -26 100 -1 100 c 2
 24 100 l 2
 50 100 75 101 101 103 c 1
 70 141 53 180 53 220 c 0
 53 250 63 281 83 314 c 0
 128 384 182 408 232 408 c 0
 293 408 348 373 372 346 c 1
 359 306 l 1
 328 318 293 324 258 324 c 0
 212 324 167 314 136 295 c 1
 130 285 127 272 127 259 c 0
 127 215 159 159 210 118 c 1
 292 134 367 157 424 175 c 1
 398 100 l 1
 348 84 189 0 52 -0 c 2
 -1 -0 l 1
 -26 1 -50 24 -50 50 c 0
EndSplineSet
Colour: ffda6b
EndChar

StartChar: _.feh.isol
Encoding: 65564 -1 28
GlifName: _.feh.isol
Width: 827
VWidth: 1304
GlyphClass: 1
UnlinkRmOvrlpSave: 1
Flags: HMW
LayerCount: 2
Fore
SplineSet
64 167 m 0
 64 205 73 250 93 303 c 1
 124 288 l 1
 115 261 110 236 110 215 c 0
 110 114 209 75 358 75 c 0
 479 75 604 105 693 141 c 1
 693 150 693 159 693 167 c 0
 693 189 692 210 690 230 c 1
 664 210 631 200 599 200 c 0
 532 200 468 242 470 326 c 1
 470 338 l 1
 479 422 526 534 600 534 c 0
 700 534 763 360 763 227 c 0
 763 209 761 191 759 175 c 1
 755 159 l 1
 748 120 744 77 711 60 c 0
 626 16 474 -25 339 -25 c 0
 338 -25 336 -25 335 -25 c 0
 190 -25 64 24 64 167 c 0
581 428 m 0
 549 428 515 374 515 345 c 0
 515 317 549 300 594 300 c 0
 618 300 645 305 672 315 c 1
 650 385 614 428 581 428 c 0
EndSplineSet
Colour: ffda6b
EndChar

StartChar: _.feh.fina
Encoding: 65565 -1 29
GlifName: _.feh.fina
Width: 903
VWidth: 1304
GlyphClass: 1
UnlinkRmOvrlpSave: 1
Flags: HMW
LayerCount: 2
Fore
SplineSet
64 167 m 0
 64 205 73 250 93 303 c 1
 124 288 l 1
 115 261 110 236 110 215 c 0
 110 114 209 75 358 75 c 0
 445 75 533 90 610 113 c 1
 584 140 569 168 569 192 c 0
 569 195 569 199 570 202 c 0
 585 300 671 410 730 410 c 0
 787 410 831 323 831 241 c 0
 831 198 809 155 773 116 c 1
 807 106 841 100 872 100 c 2
 903 100 l 1
 903 -0 l 1
 872 -0 l 2
 807 0 743 20 691 50 c 1
 604 9 465 -25 339 -25 c 0
 338 -25 336 -25 335 -25 c 0
 190 -25 64 24 64 167 c 0
619 222 m 0
 619 196 652 168 696 145 c 1
 751 170 792 201 792 213 c 0
 792 238 756 310 717 310 c 0
 693 310 641 270 620 229 c 0
 620 227 619 224 619 222 c 0
EndSplineSet
Colour: ffda6b
EndChar

StartChar: _.feh.medi
Encoding: 65566 -1 30
GlifName: _.feh.medi
Width: 398
VWidth: 1304
GlyphClass: 1
UnlinkRmOvrlpSave: 1
Flags: HMW
LayerCount: 2
Fore
SplineSet
-50 50 m 0
 -49 76 -26 100 -1 100 c 2
 9 100 l 2
 41 100 74 106 105 113 c 1
 78 142 64 170 64 194 c 0
 64 197 64 199 64 202 c 0
 79 300 166 410 225 410 c 0
 283 410 327 323 327 241 c 0
 327 198 305 155 268 116 c 1
 302 106 338 100 369 100 c 2
 398 100 l 1
 398 -0 l 1
 369 -0 l 2
 304 0 238 21 186 52 c 1
 133 20 71 0 8 -0 c 2
 0 -0 l 1
 -25 1 -50 24 -50 50 c 0
114 223 m 0
 114 196 147 168 193 145 c 1
 247 171 287 201 287 213 c 0
 287 238 251 310 213 310 c 0
 189 310 136 270 115 229 c 0
 115 227 114 225 114 223 c 0
EndSplineSet
Colour: ffda6b
EndChar

StartChar: _.feh.init
Encoding: 65567 -1 31
GlifName: _.feh.init
Width: 394
VWidth: 1304
GlyphClass: 1
UnlinkRmOvrlpSave: 1
Flags: HMW
LayerCount: 2
Fore
SplineSet
-50 50 m 0
 -49 76 -25 100 0 100 c 2
 125 100 l 2
 185 100 227 114 260 141 c 1
 260 150 261 159 261 167 c 0
 261 189 260 210 258 230 c 1
 232 210 199 200 167 200 c 0
 100 200 35 242 37 326 c 1
 37 338 l 1
 46 422 93 534 167 534 c 0
 268 534 330 362 330 230 c 0
 330 205 328 181 323 160 c 1
 311 44 239 0 125 -0 c 2
 0 -0 l 2
 -25 0 -50 24 -50 50 c 0
148 428 m 0
 117 428 83 374 83 345 c 0
 83 316 116 300 161 300 c 0
 185 300 212 305 239 315 c 1
 217 385 181 428 148 428 c 0
EndSplineSet
Colour: ffda6b
EndChar

StartChar: _.qaf.isol
Encoding: 65568 -1 32
GlifName: _.qaf.isol
Width: 667
VWidth: 1304
GlyphClass: 1
UnlinkRmOvrlpSave: 1
Flags: HMW
LayerCount: 2
Fore
SplineSet
64 -46 m 0
 64 6 77 68 107 141 c 0
 109 147 116 149 122 149 c 0
 134 149 147 142 147 132 c 0
 147 131 146 129 146 128 c 0
 127 77 119 34 119 -3 c 0
 119 -124 210 -170 311 -170 c 0
 391 -170 477 -141 528 -95 c 1
 531 -68 533 -42 533 -18 c 0
 533 4 531 24 529 44 c 1
 503 24 470 15 438 15 c 0
 371 15 307 56 309 140 c 1
 309 152 l 1
 316 236 365 348 439 348 c 0
 540 348 603 176 603 43 c 0
 603 26 602 10 600 -5 c 1
 599 -169 440 -267 295 -267 c 0
 174 -267 64 -199 64 -46 c 0
420 242 m 0
 389 242 355 189 355 160 c 0
 355 131 389 114 434 114 c 0
 458 114 485 119 512 129 c 1
 490 199 454 242 420 242 c 0
EndSplineSet
Colour: ffda6b
EndChar

StartChar: _.qaf.fina
Encoding: 65569 -1 33
GlifName: _.qaf.fina
Width: 668
VWidth: 1304
GlyphClass: 1
UnlinkRmOvrlpSave: 1
Flags: HMW
LayerCount: 2
Fore
SplineSet
309 133 m 0
 309 226 364 348 439 348 c 0
 526 348 585 219 600 100 c 1
 623 100 645 100 668 100 c 1
 668 -0 l 1
 645 0 623 0 600 -0 c 1
 600 -5 l 2
 599 -169 440 -267 295 -267 c 0
 174 -267 64 -199 64 -46 c 0
 64 6 77 68 107 141 c 0
 109 147 116 149 122 149 c 0
 134 149 147 142 147 132 c 0
 147 131 146 129 146 128 c 0
 127 77 119 34 119 -3 c 0
 119 -124 210 -170 311 -170 c 0
 391 -170 477 -141 528 -95 c 1
 532 -70 533 -46 533 -23 c 0
 533 -16 533 -8 533 -1 c 1
 425 2 309 22 309 133 c 0
420 242 m 0
 389 242 355 189 355 160 c 0
 355 118 439 106 519 101 c 1
 498 187 458 242 420 242 c 0
EndSplineSet
Colour: ffda6b
EndChar

StartChar: _.kaf.isol.fa
Encoding: 65570 -1 34
GlifName: _.kaf.isol.fa
Width: 971
VWidth: 1304
GlyphClass: 1
UnlinkRmOvrlpSave: 1
Flags: HMW
LayerCount: 2
Fore
SplineSet
64 167 m 0
 64 205 73 250 93 303 c 1
 124 288 l 1
 115 261 110 236 110 215 c 0
 110 114 209 75 358 75 c 0
 484 75 615 108 705 148 c 1
 691 223 612 301 539 361 c 2
 461 425 l 2
 449 435 444 448 444 464 c 0
 444 516 498 587 525 596 c 2
 888 709 l 2
 890 710 892 710 894 710 c 0
 903 710 907 701 907 689 c 0
 907 661 889 616 882 614 c 2
 524 502 l 1
 597 442 l 2
 681 373 762 290 762 179 c 0
 762 173 763 166 762 160 c 0
 762 135 750 86 735 74 c 0
 656 25 488 -25 339 -25 c 0
 338 -25 336 -25 335 -25 c 0
 190 -25 64 24 64 167 c 0
EndSplineSet
Colour: ffda6b
EndChar

StartChar: _.kaf.isol.ar
Encoding: 65571 -1 35
GlifName: _.kaf.isol.ar
Width: 827
VWidth: 1304
GlyphClass: 1
UnlinkRmOvrlpSave: 1
Flags: HMW
LayerCount: 2
Fore
SplineSet
358 75 m 0
 483 75 613 107 703 146 c 1
 672 575 l 1
 672 606 703 661 731 700 c 1
 743 690 l 1
 763 152 l 1
 761 125 749 85 735 74 c 0
 656 25 488 -25 339 -25 c 0
 338 -25 336 -25 335 -25 c 0
 190 -25 64 24 64 167 c 0
 64 205 73 250 93 303 c 1
 124 288 l 1
 115 261 110 236 110 215 c 0
 110 114 209 75 358 75 c 0
EndSplineSet
Colour: ffda6b
EndChar

StartChar: _.kaf.fina.fa
Encoding: 65572 -1 36
GlifName: _.kaf.fina.fa
Width: 948
VWidth: 1304
GlyphClass: 1
UnlinkRmOvrlpSave: 1
Flags: HMW
LayerCount: 2
Fore
SplineSet
64 167 m 0
 64 205 73 250 93 303 c 1
 124 288 l 1
 115 261 110 236 110 215 c 0
 110 114 209 75 358 75 c 0
 484 75 615 108 705 148 c 1
 691 223 612 301 539 361 c 2
 461 425 l 2
 449 435 444 448 444 464 c 0
 444 516 498 587 525 596 c 2
 888 709 l 2
 890 710 892 710 894 710 c 0
 903 710 907 701 907 689 c 0
 907 661 889 616 882 614 c 2
 524 502 l 1
 597 442 l 2
 623 421 649 399 671 374 c 0
 685 359 698 345 709 330 c 0
 800 208 806 100 948 100 c 1
 948 -0 l 1
 838 0 792 42 751 102 c 1
 746 90 741 79 735 74 c 0
 656 25 488 -25 339 -25 c 0
 338 -25 336 -25 335 -25 c 0
 190 -25 64 24 64 167 c 0
EndSplineSet
Colour: ffda6b
EndChar

StartChar: _.kaf.fina.ar
Encoding: 65573 -1 37
GlifName: _.kaf.fina.ar
Width: 890
VWidth: 1304
GlyphClass: 1
UnlinkRmOvrlpSave: 1
Flags: HMW
LayerCount: 2
Fore
SplineSet
358 75 m 0
 483 75 613 107 703 146 c 1
 673 575 l 1
 673 606 704 661 732 700 c 1
 744 690 l 1
 764 152 l 1
 792 106 842 100 890 100 c 1
 890 -0 l 1
 805 0 752 27 726 69 c 1
 644 21 483 -25 339 -25 c 0
 338 -25 336 -25 335 -25 c 0
 190 -25 64 24 64 167 c 0
 64 205 73 250 93 303 c 1
 124 288 l 1
 115 261 110 236 110 215 c 0
 110 114 209 75 358 75 c 0
EndSplineSet
Colour: ffda6b
EndChar

StartChar: _.kaf.medi
Encoding: 65574 -1 38
GlifName: _.kaf.medi
Width: 486
VWidth: 1304
GlyphClass: 1
UnlinkRmOvrlpSave: 1
Flags: HMW
LayerCount: 2
Fore
SplineSet
-50 49 m 0
 -50 75 -28 100 -2 100 c 2
 10 100 l 2
 104 100 185 111 244 138 c 1
 235 217 152 298 76 361 c 2
 -1 425 l 2
 -13 435 -18 449 -18 465 c 0
 -18 515 30 582 59 596 c 1
 423 709 l 2
 425 710 427 710 429 710 c 0
 438 710 441 701 441 689 c 0
 441 661 424 616 417 614 c 2
 61 503 l 1
 135 442 l 2
 175 410 214 372 245 330 c 0
 337 208 344 100 486 100 c 1
 486 -0 l 1
 375 0 328 41 287 103 c 1
 283 92 278 84 271 75 c 0
 213 16 131 0 12 -0 c 2
 -1 -0 l 1
 -25 1 -50 24 -50 49 c 0
EndSplineSet
Colour: ffda6b
EndChar

StartChar: _.kaf.init
Encoding: 65575 -1 39
GlifName: _.kaf.init
Width: 505
VWidth: 1304
GlyphClass: 1
UnlinkRmOvrlpSave: 1
Flags: HMW
LayerCount: 2
Fore
SplineSet
-50 49 m 0
 -50 75 -28 100 -2 100 c 2
 10 100 l 2
 104 100 185 111 244 138 c 1
 235 217 152 298 76 361 c 2
 -1 425 l 2
 -13 435 -18 449 -18 465 c 0
 -18 515 30 582 59 596 c 1
 423 709 l 2
 425 710 427 710 429 710 c 0
 438 710 441 701 441 689 c 0
 441 661 424 616 417 614 c 2
 61 503 l 1
 135 442 l 2
 218 373 300 290 300 179 c 0
 300 139 291 99 271 75 c 0
 213 16 131 0 12 -0 c 2
 -1 -0 l 1
 -25 1 -50 24 -50 49 c 0
EndSplineSet
Colour: ffda6b
EndChar

StartChar: _.kaf_hamze.isol.ar
Encoding: 65576 -1 40
GlifName: _.kaf_hamze.isol.ar
Width: 350
VWidth: 1304
GlyphClass: 1
UnlinkRmOvrlpSave: 1
Flags: HMW
LayerCount: 2
Fore
SplineSet
79 35 m 0
 154 35 245 49 245 87 c 0
 245 98 221 101 192 101 c 0
 168 101 141 100 124 100 c 1
 124 103 124 105 124 108 c 0
 124 171 162 274 257 274 c 1
 245 223 l 1
 209 223 166 188 161 150 c 1
 173 150 187 151 201 151 c 0
 242 151 286 144 286 98 c 0
 286 37 210 -1 139 -1 c 0
 107 -1 85 10 64 22 c 1
 69 36 l 1
 72 36 76 35 79 35 c 0
EndSplineSet
Colour: ffda6b
EndChar

StartChar: _.ghaf.isol
Encoding: 65577 -1 41
GlifName: _.ghaf.isol
Width: 1012
VWidth: 0
GlyphClass: 1
UnlinkRmOvrlpSave: 1
Flags: HMW
LayerCount: 2
Fore
SplineSet
64 167 m 0
 64 205 73 250 93 303 c 1
 124 288 l 1
 115 261 110 236 110 215 c 0
 110 114 209 75 358 75 c 0
 484 75 615 108 705 148 c 1
 691 223 612 301 539 361 c 2
 461 425 l 2
 449 435 444 448 444 464 c 0
 444 516 498 587 525 596 c 2
 888 709 l 2
 890 710 892 710 894 710 c 0
 903 710 907 701 907 689 c 0
 907 661 889 616 882 614 c 2
 524 502 l 1
 597 442 l 2
 623 421 649 399 671 374 c 0
 685 359 698 345 709 330 c 0
 800 208 806 100 948 100 c 1
 948 -0 l 1
 838 0 792 42 751 102 c 1
 746 90 741 79 735 74 c 0
 656 25 488 -25 339 -25 c 0
 338 -25 336 -25 335 -25 c 0
 190 -25 64 24 64 167 c 0
533 651 m 1
 551 705 l 1
 866 800 l 1
 849 748 l 1
 533 651 l 1
EndSplineSet
Colour: ffda6b
EndChar

StartChar: _.ghaf.fina
Encoding: 65578 -1 42
GlifName: _.ghaf.fina
Width: 948
VWidth: 0
GlyphClass: 1
Flags: HMW
LayerCount: 2
Fore
SplineSet
64 167 m 0
 64 205 73 250 93 303 c 1
 124 288 l 1
 115 261 110 236 110 215 c 0
 110 114 209 75 358 75 c 0
 484 75 615 108 705 148 c 1
 691 223 612 301 539 361 c 2
 461 425 l 2
 449 435 444 448 444 464 c 0
 444 516 498 587 525 596 c 2
 888 709 l 2
 890 710 892 710 894 710 c 0
 903 710 907 701 907 689 c 0
 907 661 889 616 882 614 c 2
 524 502 l 1
 597 442 l 2
 623 421 649 399 671 374 c 0
 685 359 698 345 709 330 c 0
 800 208 806 100 948 100 c 1
 948 -0 l 1
 838 0 792 42 751 102 c 1
 746 90 741 79 735 74 c 0
 656 25 488 -25 339 -25 c 0
 338 -25 336 -25 335 -25 c 0
 190 -25 64 24 64 167 c 0
533 651 m 1
 551 705 l 1
 866 800 l 1
 849 748 l 1
 533 651 l 1
EndSplineSet
Colour: ffda6b
EndChar

StartChar: _.ghaf_sarkaj.medi
Encoding: 65579 -1 43
GlifName: _.ghaf_sarkaj.medi
Width: 347
VWidth: 1304
GlyphClass: 1
UnlinkRmOvrlpSave: 1
Flags: HMW
LayerCount: 2
Fore
SplineSet
-50 37 m 0
 -50 51 -44 62 -28 69 c 1
 347 288 l 1
 347 284 l 1
 335 230 l 1
 -48 1 l 1
 -50 11 -50 23 -50 37 c 0
EndSplineSet
Colour: ffda6b
EndChar

StartChar: _.lam.isol
Encoding: 65580 -1 44
GlifName: _.lam.isol
Width: 606
VWidth: 1304
GlyphClass: 1
UnlinkRmOvrlpSave: 1
Flags: HMW
LayerCount: 2
Fore
SplineSet
120 -13 m 0
 120 -126 190 -175 273 -175 c 0
 354 -175 444 -140 485 -80 c 1
 495 -67 l 1
 449 575 l 1
 449 606 480 661 508 700 c 1
 521 690 l 1
 542 -5 l 1
 542 -147 438 -276 261 -276 c 0
 157 -276 64 -211 64 -63 c 0
 64 -7 77 60 108 141 c 0
 110 147 117 150 123 150 c 0
 135 150 148 142 148 132 c 0
 148 131 148 129 148 128 c 0
 128 73 120 26 120 -13 c 0
EndSplineSet
Colour: ffda6b
EndChar

StartChar: _.lam.fina
Encoding: 65581 -1 45
GlifName: _.lam.fina
Width: 666
VWidth: 1304
GlyphClass: 1
UnlinkRmOvrlpSave: 1
Flags: HMW
LayerCount: 2
Fore
SplineSet
120 -13 m 0
 120 -126 190 -175 273 -175 c 0
 354 -175 444 -140 485 -80 c 1
 495 -67 l 1
 449 575 l 1
 449 606 480 661 508 700 c 1
 521 690 l 1
 537 160 l 1
 564 108 618 100 666 100 c 1
 666 -0 l 1
 623 0 577 6 540 31 c 1
 540 -5 l 2
 540 -147 438 -276 261 -276 c 0
 157 -276 64 -211 64 -63 c 0
 64 -7 77 60 108 141 c 0
 110 147 117 150 123 150 c 0
 135 150 148 142 148 132 c 0
 148 131 148 129 148 128 c 0
 128 73 120 26 120 -13 c 0
EndSplineSet
Colour: ffda6b
EndChar

StartChar: _.lam.medi
Encoding: 65582 -1 46
GlifName: _.lam.medi
Width: 307
VWidth: 1304
GlyphClass: 1
UnlinkRmOvrlpSave: 1
Flags: HMW
LayerCount: 2
Fore
SplineSet
-50 50 m 0
 -50 76 -26 100 -1 100 c 0
 43 100 84 106 120 131 c 1
 90 575 l 1
 90 606 121 661 149 700 c 1
 162 690 l 1
 180 151 l 1
 208 107 259 100 307 100 c 1
 307 -0 l 1
 252 0 191 11 154 54 c 1
 120 16 67 0 -1 -0 c 0
 -26 0 -50 24 -50 50 c 0
EndSplineSet
Colour: ffda6b
EndChar

StartChar: _.lam.init
Encoding: 65583 -1 47
GlifName: _.lam.init
Width: 265
VWidth: 1304
GlyphClass: 1
UnlinkRmOvrlpSave: 1
Flags: HMW
LayerCount: 2
Fore
SplineSet
0 100 m 0
 61 100 111 116 141 148 c 1
 111 575 l 1
 111 606 142 661 170 700 c 1
 183 690 l 1
 201 176 l 2
 201 165 197 155 195 141 c 0
 178 42 109 0 0 -0 c 0
 -26 0 -50 24 -50 50 c 0
 -49 76 -26 100 0 100 c 0
EndSplineSet
Colour: ffda6b
EndChar

StartChar: _.mim.isol
Encoding: 65584 -1 48
GlifName: _.mim.isol
Width: 528
VWidth: 1304
GlyphClass: 1
UnlinkRmOvrlpSave: 1
Flags: HMW
LayerCount: 2
Fore
SplineSet
64 12 m 0
 64 142 127 175 201 175 c 1
 240 269 l 2
 255 308 273 349 319 349 c 0
 392 349 464 271 464 178 c 0
 464 161 462 142 456 124 c 0
 435 55 400 41 372 41 c 0
 360 41 349 43 341 45 c 2
 269 65 l 1
 246 70 224 75 204 75 c 0
 170 75 138 65 116 44 c 1
 138 -275 l 1
 138 -306 117 -361 89 -400 c 1
 77 -390 l 1
 64 -6 l 2
 64 0 64 6 64 12 c 0
249 171 m 1
 412 130 l 1
 411 194 343 257 303 257 c 0
 291 257 282 252 277 240 c 2
 249 171 l 1
EndSplineSet
Colour: ffda6b
EndChar

StartChar: _.mim.fina
Encoding: 65585 -1 49
GlifName: _.mim.fina
Width: 574
VWidth: 1304
GlyphClass: 1
UnlinkRmOvrlpSave: 1
Flags: HMW
LayerCount: 2
Fore
SplineSet
64 27 m 0
 64 139 174 233 345 253 c 1
 345 255 l 1
 360 233 387 100 574 100 c 1
 574 -0 l 1
 510 0 462 13 428 31 c 1
 352 -29 l 2
 330 -46 302 -65 276 -65 c 0
 269 -65 262 -64 255 -61 c 0
 211 -41 187 8 187 62 c 0
 187 79 189 96 194 114 c 1
 166 99 140 80 119 58 c 1
 143 -275 l 1
 143 -306 122 -361 94 -400 c 1
 81 -390 l 1
 67 -8 l 1
 65 4 64 16 64 27 c 0
270 108 m 0
 270 58 293 11 320 11 c 0
 326 11 331 13 337 17 c 2
 389 56 l 1
 341 97 328 145 321 155 c 1
 305 153 289 149 274 145 c 1
 271 133 270 120 270 108 c 0
EndSplineSet
Colour: ffda6b
EndChar

StartChar: _.mim.medi
Encoding: 65586 -1 50
GlifName: _.mim.medi
Width: 498
VWidth: 1304
GlyphClass: 1
UnlinkRmOvrlpSave: 1
Flags: HMW
LayerCount: 2
Fore
SplineSet
241 295 m 0
 352 295 312 100 498 100 c 1
 498 -0 l 1
 436 0 395 15 364 40 c 1
 345 4 319 -21 281 -21 c 0
 271 -21 260 -19 248 -15 c 0
 201 1 141 32 121 48 c 1
 105 28 67 0 10 -0 c 2
 0 -0 l 2
 -26 0 -50 24 -50 50 c 0
 -49 75 -26 100 0 100 c 2
 7 100 l 2
 41 100 105 119 125 149 c 0
 147 187 196 295 241 295 c 0
156 129 m 1
 193 106 234 84 276 72 c 0
 287 68 295 67 302 67 c 0
 312 67 318 70 325 77 c 1
 281 134 266 200 212 200 c 0
 195 200 168 150 156 129 c 1
EndSplineSet
Colour: ffda6b
EndChar

StartChar: _.mim.init
Encoding: 65587 -1 51
GlifName: _.mim.init
Width: 448
VWidth: 1304
GlyphClass: 1
UnlinkRmOvrlpSave: 1
Flags: HMW
LayerCount: 2
Fore
SplineSet
-50 50 m 0
 -49 75 -26 100 0 100 c 2
 7 100 l 2
 41 100 105 119 125 149 c 1
 169 237 l 2
 185 269 207 309 244 309 c 0
 316 309 384 231 384 141 c 0
 384 118 380 94 370 71 c 0
 346 11 313 -4 286 -4 c 0
 271 -4 257 1 248 5 c 2
 122 50 l 1
 108 30 70 0 10 -0 c 2
 0 -0 l 2
 -26 0 -50 24 -50 50 c 0
169 138 m 1
 325 82 l 1
 325 85 326 88 326 91 c 0
 326 154 265 218 227 218 c 0
 217 218 207 214 202 203 c 2
 169 138 l 1
EndSplineSet
Colour: ffda6b
EndChar

StartChar: _.nun.isol
Encoding: 65588 -1 52
GlifName: _.nun.isol
Width: 664
VWidth: 1305
GlyphClass: 1
UnlinkRmOvrlpSave: 1
Flags: HMW
LayerCount: 2
Fore
SplineSet
64 -46 m 0
 64 6 77 68 107 141 c 0
 109 147 116 149 122 149 c 0
 134 149 147 142 147 132 c 0
 147 131 146 129 146 128 c 0
 127 77 119 34 119 -3 c 0
 119 -124 210 -171 311 -171 c 0
 400 -171 496 -134 543 -80 c 1
 546 -69 547 -58 547 -44 c 0
 547 -3 532 56 481 151 c 1
 529 250 l 1
 592 134 600 58 600 19 c 0
 600 8 599 0 599 -5 c 0
 599 -169 441 -267 296 -267 c 0
 175 -267 64 -199 64 -46 c 0
EndSplineSet
Colour: ffda6b
EndChar

StartChar: _.nun.fina
Encoding: 65589 -1 53
GlifName: _.nun.fina
Width: 724
VWidth: 1413
GlyphClass: 1
UnlinkRmOvrlpSave: 1
Flags: HMW
LayerCount: 2
Fore
SplineSet
64 -46 m 0
 64 6 77 68 107 141 c 0
 109 147 116 149 122 149 c 0
 134 149 147 142 147 132 c 0
 147 131 146 129 146 128 c 0
 127 77 119 34 119 -3 c 0
 119 -124 210 -171 311 -171 c 0
 400 -171 496 -134 543 -80 c 0
 545 -77 546 -69 546 -58 c 0
 546 -21 533 54 481 151 c 1
 529 250 l 1
 533 244 537 237 539 231 c 0
 586 146 613 100 724 100 c 1
 724 -0 l 1
 681 0 638 6 601 29 c 1
 601 13 600 1 599 -5 c 0
 599 -169 441 -267 296 -267 c 0
 175 -267 64 -199 64 -46 c 0
EndSplineSet
Colour: ffda6b
EndChar

StartChar: _.vav.isol
Encoding: 65590 -1 54
GlifName: _.vav.isol
Width: 471
VWidth: 1304
GlyphClass: 1
UnlinkRmOvrlpSave: 1
Flags: HMW
LayerCount: 2
Fore
SplineSet
407 22 m 0
 407 -122 277 -260 202 -260 c 0
 161 -260 113 -243 69 -228 c 1
 66 -225 64 -220 64 -215 c 0
 64 -206 68 -195 78 -193 c 1
 85 -194 92 -195 99 -195 c 0
 188 -195 297 -125 336 -38 c 1
 336 -33 336 -29 336 -24 c 0
 336 -2 334 19 332 38 c 1
 305 13 268 1 232 1 c 0
 167 1 103 41 103 121 c 0
 103 123 103 125 103 127 c 2
 103 146 l 1
 114 230 171 335 242 335 c 0
 343 335 407 161 407 22 c 0
224 229 m 0
 192 229 148 176 148 145 c 0
 148 116 182 100 226 100 c 0
 253 100 284 106 314 119 c 1
 292 187 256 229 224 229 c 0
EndSplineSet
Colour: ffda6b
EndChar

StartChar: _.vav.fina
Encoding: 65591 -1 55
GlifName: _.vav.fina
Width: 483
VWidth: 1304
GlyphClass: 1
UnlinkRmOvrlpSave: 1
Flags: HMW
LayerCount: 2
Fore
SplineSet
64 -215 m 0
 64 -206 68 -195 78 -193 c 1
 84 -194 91 -195 98 -195 c 0
 194 -195 312 -115 343 -20 c 1
 343 -0 l 1
 234 -0 l 2
 233 0 232 0 231 -0 c 0
 166 0 103 41 103 120 c 0
 103 122 103 125 103 127 c 0
 103 134 103 142 104 149 c 0
 116 231 172 335 242 335 c 0
 326 335 384 216 401 100 c 1
 483 100 l 1
 483 -0 l 1
 406 -0 l 1
 405 -15 403 -28 399 -42 c 0
 399 -43 397 -48 396 -48 c 0
 364 -161 265 -260 202 -260 c 0
 161 -260 113 -243 69 -228 c 1
 66 -225 64 -220 64 -215 c 0
224 229 m 0
 192 229 148 176 148 146 c 0
 148 117 183 99 228 99 c 0
 229 99 231 100 232 100 c 2
 327 100 l 1
 304 180 261 229 224 229 c 0
EndSplineSet
Colour: ffda6b
EndChar

StartChar: _.dal.isol
Encoding: 65592 -1 56
GlifName: _.dal.isol
Width: 436
VWidth: 1304
GlyphClass: 1
UnlinkRmOvrlpSave: 1
Flags: HMW
LayerCount: 2
Fore
SplineSet
64 124 m 0
 64 133 75 144 83 144 c 0
 87 144 90 141 91 136 c 0
 97 108 125 100 166 100 c 0
 219 100 270 106 311 144 c 1
 312 174 249 292 158 335 c 1
 201 425 l 1
 324 346 372 243 372 164 c 0
 372 142 368 121 361 104 c 0
 328 14 247 0 166 -0 c 0
 112 0 64 26 64 124 c 0
EndSplineSet
Colour: ffda6b
EndChar

StartChar: _.dal.fina
Encoding: 65593 -1 57
GlifName: _.dal.fina
Width: 500
VWidth: 1304
GlyphClass: 1
UnlinkRmOvrlpSave: 1
Flags: HMW
LayerCount: 2
Fore
SplineSet
64 124 m 0
 64 133 75 144 83 144 c 0
 87 144 90 141 91 136 c 0
 97 108 125 100 166 100 c 0
 219 100 270 105 309 141 c 1
 250 332 l 1
 294 422 l 1
 305 418 l 1
 378 178 l 2
 392 135 405 100 500 100 c 1
 500 -0 l 1
 438 0 377 12 340 66 c 1
 301 9 234 0 166 -0 c 0
 112 0 64 26 64 124 c 0
EndSplineSet
Colour: ffda6b
EndChar

StartChar: _.ree.isol
Encoding: 65594 -1 58
GlifName: _.ree.isol
Width: 472
VWidth: 1304
GlyphClass: 1
UnlinkRmOvrlpSave: 1
Flags: HMW
LayerCount: 2
Fore
SplineSet
64 -215 m 0
 64 -206 68 -195 77 -193 c 1
 84 -194 90 -195 97 -195 c 0
 192 -195 309 -116 342 -22 c 0
 346 -12 350 -1 350 13 c 0
 350 67 308 130 279 183 c 1
 326 282 l 1
 351 232 359 215 387 150 c 0
 403 115 408 79 408 37 c 0
 408 19 406 -1 403 -19 c 0
 381 -143 269 -260 200 -260 c 0
 161 -260 113 -243 69 -228 c 1
 66 -225 64 -220 64 -215 c 0
EndSplineSet
Colour: ffda6b
EndChar

StartChar: _.ree.fina
Encoding: 65595 -1 59
GlifName: _.ree.fina
Width: 535
VWidth: 1304
GlyphClass: 1
UnlinkRmOvrlpSave: 1
Flags: HMW
LayerCount: 2
Fore
SplineSet
64 -215 m 0
 64 -206 68 -195 77 -193 c 1
 84 -194 90 -195 97 -195 c 0
 192 -195 309 -116 342 -22 c 0
 346 -12 350 -1 350 13 c 0
 350 67 308 130 279 183 c 1
 326 282 l 1
 337 261 345 246 352 231 c 0
 398 146 425 100 535 100 c 1
 535 -0 l 1
 491 0 445 7 407 33 c 1
 407 16 405 -2 403 -19 c 0
 381 -143 269 -260 200 -260 c 0
 161 -260 113 -243 69 -228 c 1
 66 -225 64 -220 64 -215 c 0
EndSplineSet
Colour: ffda6b
EndChar

StartChar: _.he8.isol
Encoding: 65596 -1 60
GlifName: _.he8.isol
Width: 396
VWidth: 1304
GlyphClass: 1
UnlinkRmOvrlpSave: 1
Flags: HMW
LayerCount: 2
Fore
SplineSet
64 106 m 0
 64 160 94 231 148 308 c 1
 130 330 l 1
 174 427 l 1
 312 261 l 2
 326 245 332 220 332 192 c 0
 332 109 276 -2 188 -2 c 0
 182 -2 177 -1 171 -0 c 0
 97 12 64 50 64 106 c 0
110 138 m 0
 110 117 127 105 169 100 c 0
 182 99 194 97 204 97 c 0
 260 97 279 118 279 139 c 0
 279 149 275 159 268 167 c 2
 181 271 l 1
 141 209 110 166 110 138 c 0
EndSplineSet
Colour: ffda6b
EndChar

StartChar: _.he8.fina
Encoding: 65597 -1 61
GlifName: _.he8.fina
Width: 485
VWidth: 1304
GlyphClass: 1
UnlinkRmOvrlpSave: 1
Flags: HMW
LayerCount: 2
Fore
SplineSet
155 81 m 0
 107 81 64 101 64 153 c 0
 64 202 111 261 183 300 c 2
 254 338 l 1
 247 390 l 1
 296 474 l 1
 304 468 l 1
 336 250 l 2
 345 192 350 150 387 123 c 0
 415 103 451 100 485 100 c 1
 485 -0 l 1
 358 0 312 49 291 117 c 1
 254 97 200 81 155 81 c 0
131 192 m 0
 131 178 153 175 171 175 c 0
 200 175 240 182 275 193 c 1
 261 290 l 1
 235 277 l 2
 174 245 131 212 131 192 c 0
EndSplineSet
Colour: ffda6b
EndChar

StartChar: _.he8.medi
Encoding: 65598 -1 62
GlifName: _.he8.medi
Width: 454
VWidth: 1304
GlyphClass: 1
UnlinkRmOvrlpSave: 1
Flags: HMW
LayerCount: 2
Fore
SplineSet
397 -110 m 0
 397 -154 377 -190 353 -211 c 1
 353 -212 l 1
 337 -224 317 -230 296 -230 c 0
 212 -230 104 -140 83 4 c 1
 68 2 55 0 40 -0 c 2
 -1 -0 l 2
 -26 0 -50 24 -50 50 c 0
 -50 76 -26 100 -1 100 c 2
 40 100 l 2
 55 100 69 101 83 102 c 1
 116 260 227 405 247 425 c 0
 252 430 256 432 261 432 c 0
 301 432 318 258 327 224 c 1
 326 180 304 137 271 100 c 1
 454 100 l 1
 454 -0 l 1
 348 -0 l 1
 384 -37 397 -75 397 -110 c 0
138 -5 m 1
 170 -74 235 -142 303 -142 c 0
 318 -142 333 -139 348 -132 c 1
 327 -86 268 -35 138 -5 c 1
138 111 m 1
 195 123 244 145 281 175 c 1
 269 225 253 301 245 301 c 0
 244 300 l 0
 230 284 169 197 138 111 c 1
EndSplineSet
Colour: ffda6b
EndChar

StartChar: _.he8.init
Encoding: 65599 -1 63
GlifName: _.he8.init
Width: 504
VWidth: 1304
GlyphClass: 1
UnlinkRmOvrlpSave: 1
Flags: HMW
LayerCount: 2
Fore
SplineSet
-50 50 m 0
 -49 75 -26 100 -1 100 c 0
 24 100 47 102 69 107 c 1
 52 128 42 153 42 180 c 0
 42 202 48 225 62 250 c 0
 82 291 104 321 127 343 c 1
 174 441 l 1
 357 319 440 232 440 145 c 0
 440 122 435 99 424 76 c 2
 389 0 l 1
 308 0 226 15 161 43 c 1
 117 15 62 0 0 -0 c 1
 -25 1 -50 24 -50 50 c 0
180 148 m 1
 222 173 238 189 238 235 c 0
 238 256 232 273 221 284 c 0
 209 292 198 302 179 302 c 0
 156 302 130 288 111 257 c 0
 104 247 102 238 102 229 c 0
 102 198 134 170 180 148 c 1
284 237 m 1
 276 200 255 155 239 124 c 1
 286 109 337 101 383 100 c 1
 378 144 344 189 284 237 c 1
EndSplineSet
Colour: ffda6b
EndChar

StartChar: _.yeh.fina
Encoding: 65600 -1 64
GlifName: _.yeh.fina
Width: 639
VWidth: 1304
GlyphClass: 1
UnlinkRmOvrlpSave: 1
Flags: HMW
LayerCount: 2
Fore
SplineSet
565 -98 m 0
 565 -134 542 -165 518 -184 c 1
 518 -185 l 1
 459 -238 375 -267 296 -267 c 0
 175 -267 64 -199 64 -46 c 0
 64 6 77 68 107 141 c 0
 109 147 115 149 121 149 c 0
 133 149 147 142 147 132 c 0
 147 131 146 129 146 128 c 0
 127 77 119 33 119 -4 c 0
 119 -125 209 -171 310 -171 c 0
 369 -171 432 -155 481 -128 c 1
 353 -74 l 2
 346 -71 323 -65 323 -36 c 0
 323 -30 324 -23 326 -16 c 0
 340 36 379 100 432 100 c 2
 639 100 l 1
 639 -0 l 1
 444 -0 l 1
 520 -32 l 2
 551 -45 565 -71 565 -98 c 0
EndSplineSet
Colour: ffda6b
EndChar

StartChar: _.yeh.isol
Encoding: 65601 -1 65
GlifName: _.yeh.isol
Width: 732
VWidth: 1304
GlyphClass: 1
UnlinkRmOvrlpSave: 1
Flags: HMW
LayerCount: 2
Fore
SplineSet
64 -46 m 0
 64 6 77 68 107 141 c 0
 109 147 115 149 121 149 c 0
 133 149 147 142 147 132 c 0
 147 131 146 129 146 128 c 0
 127 77 119 34 119 -3 c 0
 119 -124 210 -171 311 -171 c 0
 363 -171 417 -158 463 -137 c 1
 515 -105 535 -81 535 -63 c 0
 535 -20 419 -12 372 -0 c 0
 344 7 305 16 305 66 c 0
 305 84 310 106 322 136 c 0
 386 296 476 356 548 356 c 0
 616 356 668 301 668 226 c 0
 668 217 666 212 659 212 c 0
 641 212 597 241 542 241 c 0
 496 241 443 222 389 150 c 0
 380 139 374 129 374 121 c 0
 374 111 384 105 409 102 c 0
 513 92 609 64 609 -23 c 0
 609 -55 582 -105 558 -139 c 0
 501 -221 394 -267 295 -267 c 0
 174 -267 64 -199 64 -46 c 0
EndSplineSet
Colour: ffda6b
EndChar

StartChar: _.hamze.isol
Encoding: 65602 -1 66
GlifName: _.hamze.isol
Width: 462
VWidth: 1304
GlyphClass: 2
Flags: HMW
LayerCount: 2
Fore
SplineSet
345 247 m 1
 309 273 276 283 244 283 c 0
 211 283 139 257 139 234 c 0
 139 175 214 155 276 155 c 0
 312 155 354 158 398 168 c 1
 362 84 l 1
 230 66 122 37 68 -0 c 1
 64 44 l 1
 84 62 145 92 154 93 c 1
 154 100 68 151 68 226 c 0
 68 301 178 363 233 363 c 0
 288 363 350 303 371 269 c 1
 345 247 l 1
EndSplineSet
Colour: ffda6b
EndChar

StartChar: _.keshide.medi
Encoding: 65603 -1 67
GlifName: _.keshide.medi
Width: 235
VWidth: 1304
GlyphClass: 2
Flags: HMW
LayerCount: 2
Fore
SplineSet
-12 100 m 2
 235 100 l 1
 235 0 l 1
 -12 0 l 2
 -37 0 -50 25 -50 50 c 0
 -50 75 -37 100 -12 100 c 2
EndSplineSet
Colour: ffda6b
EndChar

StartChar: _.dot.1u
Encoding: 65604 -1 68
GlifName: _.dot.1u
Width: 0
VWidth: 1304
GlyphClass: 2
Flags: HMW
LayerCount: 2
Fore
SplineSet
3 56 m 2
 -1 60 -1 66 3 70 c 2
 57 124 l 2
 61 128 66 128 70 124 c 2
 125 71 l 2
 129 67 129 62 125 58 c 2
 70 4 l 2
 66 0 61 0 57 4 c 2
 3 56 l 2
EndSplineSet
Colour: ffda6b
EndChar

StartChar: _.dot.2u
Encoding: 65605 -1 69
GlifName: _.dot.2u
Width: 0
VWidth: 1304
GlyphClass: 2
UnlinkRmOvrlpSave: 1
Flags: HMW
LayerCount: 2
Fore
SplineSet
2 53 m 2
 0 57 0 62 2 66 c 2
 54 118 l 2
 58 120 63 120 67 118 c 2
 118 66 l 1
 171 118 l 2
 173 120 179 120 183 118 c 2
 233 66 l 2
 237 62 237 58 233 54 c 2
 182 2 l 2
 180 -2 173 -2 169 2 c 2
 118 53 l 1
 66 2 l 2
 62 -2 58 -2 54 2 c 2
 2 53 l 2
EndSplineSet
Colour: ffda6b
EndChar

StartChar: _.dot.3u
Encoding: 65606 -1 70
GlifName: _.dot.3u
Width: 0
VWidth: 1304
GlyphClass: 2
UnlinkRmOvrlpSave: 1
Flags: HMW
LayerCount: 2
Fore
SplineSet
2 53 m 2
 0 57 0 62 2 66 c 2
 54 118 l 2
 58 120 63 120 67 118 c 2
 118 66 l 1
 171 118 l 2
 173 120 179 120 183 118 c 2
 233 66 l 2
 237 62 237 58 233 54 c 2
 182 2 l 2
 180 -2 173 -2 169 2 c 2
 118 53 l 1
 66 2 l 2
 62 -2 58 -2 54 2 c 2
 2 53 l 2
68 167 m 2
 66 171 66 176 68 180 c 2
 115 225 l 2
 117 227 122 227 126 225 c 2
 172 180 l 2
 174 176 174 170 172 168 c 2
 125 123 l 2
 123 119 118 119 114 123 c 2
 68 167 l 2
EndSplineSet
Colour: ffda6b
EndChar

StartChar: _.dot.1d
Encoding: 65607 -1 71
GlifName: _.dot.1d
Width: 0
VWidth: 1304
GlyphClass: 2
Flags: HMW
LayerCount: 2
Fore
SplineSet
3 -57 m 2
 57 -3 l 2
 61 1 66 1 70 -3 c 2
 125 -56 l 2
 129 -60 129 -65 125 -69 c 2
 70 -123 l 2
 66 -127 61 -127 57 -123 c 2
 3 -70 l 2
 -1 -66 -1 -61 3 -57 c 2
EndSplineSet
Colour: ffda6b
EndChar

StartChar: _.dot.2d
Encoding: 65608 -1 72
GlifName: _.dot.2d
Width: 0
VWidth: 1304
GlyphClass: 2
UnlinkRmOvrlpSave: 1
Flags: HMW
LayerCount: 2
Fore
SplineSet
2 -54 m 2
 54 -3 l 2
 58 1 63 1 67 -3 c 2
 119 -54 l 1
 171 -3 l 2
 173 1 179 1 183 -3 c 2
 233 -53 l 2
 237 -57 237 -63 233 -67 c 2
 182 -118 l 2
 180 -120 173 -120 169 -118 c 2
 119 -67 l 1
 66 -118 l 2
 62 -120 58 -120 54 -118 c 2
 2 -67 l 2
 0 -63 0 -58 2 -54 c 2
EndSplineSet
Colour: ffda6b
EndChar

StartChar: _.dot.3d
Encoding: 65609 -1 73
GlifName: _.dot.3d
Width: 0
VWidth: 1304
GlyphClass: 2
UnlinkRmOvrlpSave: 1
Flags: HMW
LayerCount: 2
Fore
SplineSet
2 -54 m 2
 54 -3 l 2
 58 1 63 1 67 -3 c 2
 119 -54 l 1
 171 -3 l 2
 173 1 179 1 183 -3 c 2
 233 -53 l 2
 237 -57 237 -63 233 -67 c 2
 182 -118 l 2
 180 -120 173 -120 169 -118 c 2
 119 -67 l 1
 66 -118 l 2
 62 -120 58 -120 54 -118 c 2
 2 -67 l 2
 0 -63 0 -58 2 -54 c 2
68 -171 m 2
 115 -126 l 2
 117 -122 122 -122 126 -126 c 2
 172 -170 l 2
 174 -174 174 -178 172 -182 c 2
 125 -228 l 2
 123 -230 118 -230 114 -228 c 2
 68 -182 l 2
 66 -180 66 -173 68 -171 c 2
EndSplineSet
Colour: ffda6b
EndChar

StartChar: _.num.0
Encoding: 65611 -1 75
GlifName: _.num.0
Width: 350
VWidth: 1424
GlyphClass: 2
Flags: HMW
LayerCount: 2
Fore
SplineSet
176 407 m 0
 130 407 101 379 101 329 c 0
 101 275 133 250 176 250 c 0
 220 250 251 279 251 329 c 0
 251 379 220 407 176 407 c 0
300 326 m 0
 300 241 250 194 176 194 c 0
 100 195 50 244 50 326 c 0
 50 411 99 468 173 468 c 0
 174 468 175 468 176 468 c 0
 254 468 300 406 300 326 c 0
EndSplineSet
Colour: ffda6b
EndChar

StartChar: _.num.1
Encoding: 65612 -1 76
GlifName: _.num.1
Width: 332
VWidth: 1331
GlyphClass: 2
Flags: HMW
LayerCount: 2
Fore
SplineSet
75 688 m 1
 172 800 l 1
 245 544 257 346 257 181 c 0
 257 116 255 56 255 -0 c 1
 170 -25 l 1
 171 5 171 36 171 67 c 0
 171 264 154 469 75 688 c 1
EndSplineSet
Colour: ffda6b
EndChar

StartChar: _.num.2
Encoding: 65613 -1 77
GlifName: _.num.2
Width: 611
VWidth: 1331
GlyphClass: 2
Flags: HMW
LayerCount: 2
Fore
SplineSet
354 576 m 0
 427 576 468 659 468 731 c 0
 468 735 468 739 468 743 c 0
 468 753 489 761 508 761 c 0
 522 761 534 756 535 742 c 0
 535 736 536 730 536 724 c 0
 536 530 433 432 330 432 c 0
 300 432 269 440 242 457 c 1
 254 355 257 263 257 180 c 0
 257 115 256 56 255 -0 c 1
 170 -25 l 1
 171 5 171 36 171 67 c 0
 171 264 154 469 75 688 c 1
 172 800 l 1
 181 773 187 747 194 721 c 1
 194 714 l 1
 214 638 273 576 354 576 c 0
EndSplineSet
Colour: ffda6b
EndChar

StartChar: _.num.3
Encoding: 65614 -1 78
GlifName: _.num.3
Width: 831
VWidth: 1331
GlyphClass: 2
Flags: HMW
LayerCount: 2
Fore
SplineSet
728 800 m 0
 753 800 756 787 756 762 c 0
 756 568 652 471 549 471 c 0
 519 471 490 479 463 495 c 1
 426 453 378 432 330 432 c 0
 300 432 269 440 242 457 c 1
 254 355 257 263 257 180 c 0
 257 115 256 56 255 -0 c 1
 170 -25 l 1
 171 5 171 36 171 67 c 0
 171 264 154 469 75 688 c 1
 172 800 l 1
 181 773 187 747 194 721 c 1
 194 714 l 1
 214 638 273 576 354 576 c 0
 427 576 468 659 468 731 c 0
 468 735 468 739 468 743 c 0
 468 753 489 761 508 761 c 0
 532 761 536 750 536 726 c 0
 536 688 532 653 524 623 c 1
 539 618 557 615 575 615 c 0
 647 615 688 701 688 773 c 0
 688 776 688 779 688 782 c 0
 688 791 709 800 728 800 c 0
EndSplineSet
Colour: ffda6b
EndChar

StartChar: _.num.4.fa
Encoding: 65615 -1 79
GlifName: _.num.4.fa
Width: 658
VWidth: 1331
GlyphClass: 2
Flags: HMW
LayerCount: 2
Fore
SplineSet
75 688 m 1
 172 800 l 1
 202 698 222 604 234 519 c 1
 241 517 249 515 256 514 c 1
 238 548 227 593 227 633 c 0
 227 645 228 656 230 667 c 0
 230 669 230 672 231 674 c 0
 255 754 334 801 419 801 c 0
 469 801 521 785 566 751 c 1
 545 698 l 1
 517 705 486 710 454 710 c 0
 396 710 337 696 297 660 c 1
 303 600 351 517 394 508 c 1
 457 514 521 533 583 560 c 1
 572 477 l 1
 493 440 412 419 325 419 c 0
 299 419 273 421 246 425 c 1
 255 338 257 259 257 187 c 0
 257 120 256 58 255 -0 c 1
 170 -25 l 1
 171 5 171 36 171 67 c 0
 171 264 154 469 75 688 c 1
EndSplineSet
Colour: ffda6b
EndChar

StartChar: _.num.5.fa
Encoding: 65617 -1 81
GlifName: _.num.5.fa
Width: 657
VWidth: 1331
GlyphClass: 2
Flags: HMW
LayerCount: 2
Fore
SplineSet
321 86 m 1
 296 33 229 0 170 0 c 0
 107 0 50 41 50 142 c 0
 50 178 57 222 74 274 c 0
 117 406 201 556 246 642 c 1
 236 654 227 666 216 679 c 1
 271 799 l 1
 312 734 498 504 574 311 c 0
 597 252 607 202 607 160 c 0
 607 50 540 -8 463 -8 c 0
 407 -8 354 24 321 86 c 1
481 102 m 0
 509 102 529 118 529 159 c 0
 529 225 473 357 291 588 c 1
 168 375 126 246 126 176 c 0
 126 121 149 103 184 103 c 0
 234 103 276 130 291 213 c 1
 337 226 l 1
 358 164 407 102 481 102 c 0
EndSplineSet
Colour: ffda6b
EndChar

StartChar: _.num.6.fa
Encoding: 65619 -1 83
GlifName: _.num.6.fa
Width: 794
VWidth: 1331
GlyphClass: 2
Flags: HMW
LayerCount: 2
Fore
SplineSet
75 43 m 1
 166 128 264 230 406 335 c 1
 342 374 264 457 264 552 c 0
 264 569 267 586 272 603 c 0
 290 660 315 793 518 793 c 0
 559 793 608 788 665 775 c 1
 641 698 l 1
 555 693 386 666 348 585 c 1
 359 517 438 430 514 409 c 1
 574 448 643 486 719 525 c 1
 703 377 l 1
 456 272 275 121 114 -37 c 1
 75 43 l 1
EndSplineSet
Colour: ffda6b
EndChar

StartChar: _.num.6.ar
Encoding: 65620 -1 84
GlifName: _.num.6.ar
Width: 666
VWidth: 1331
GlyphClass: 2
Flags: HMW
LayerCount: 2
Fore
SplineSet
75 737 m 0
 75 782 85 797 97 797 c 0
 106 797 117 787 122 778 c 0
 143 741 180 722 238 721 c 0
 243 721 272 725 322 731 c 0
 372 737 411 741 434 741 c 0
 468 741 486 724 486 690 c 0
 486 356 521 180 591 128 c 1
 585 82 572 43 560 -1 c 1
 513 38 482 80 466 124 c 0
 439 190 427 304 427 492 c 2
 427 576 l 2
 427 604 422 621 412 623 c 1
 224 604 l 1
 124 604 75 648 75 737 c 0
EndSplineSet
Colour: ffda6b
EndChar

StartChar: _.num.7
Encoding: 65621 -1 85
GlifName: _.num.7
Width: 696
VWidth: 1331
GlyphClass: 2
Flags: HMW
LayerCount: 2
Fore
SplineSet
78 672 m 2
 127 770 l 1
 143 767 l 1
 243 611 311 446 347 287 c 1
 384 446 453 611 553 767 c 1
 569 770 l 1
 618 672 l 2
 620 667 623 663 617 652 c 0
 464 418 397 230 379 6 c 1
 319 -35 l 1
 305 206 240 403 79 652 c 0
 73 663 76 667 78 672 c 2
EndSplineSet
Colour: ffda6b
EndChar

StartChar: _.num.8
Encoding: 65622 -1 86
GlifName: _.num.8
Width: 696
VWidth: 1331
GlyphClass: 2
Flags: HMW
LayerCount: 2
Fore
SplineSet
78 74 m 2
 76 79 73 82 79 93 c 0
 240 342 305 539 319 780 c 1
 379 740 l 1
 397 517 464 327 617 93 c 0
 623 82 620 79 618 74 c 2
 569 -25 l 1
 553 -21 l 1
 453 135 384 300 347 459 c 1
 311 300 243 135 143 -21 c 1
 127 -25 l 1
 78 74 l 2
EndSplineSet
Colour: ffda6b
EndChar

StartChar: _.num.9
Encoding: 65623 -1 87
GlifName: _.num.9
Width: 630
VWidth: 1331
GlyphClass: 2
Flags: HMW
LayerCount: 2
Fore
SplineSet
75 495 m 0
 75 509 76 523 78 537 c 0
 100 699 181 770 246 770 c 0
 312 770 402 689 414 524 c 0
 426 358 409 160 555 76 c 1
 488 -21 l 1
 413 31 350 83 343 349 c 1
 311 335 258 327 227 327 c 0
 122 331 75 405 75 495 c 0
239 641 m 0
 188 641 136 586 136 535 c 0
 136 491 191 454 231 454 c 0
 232 454 232 454 233 454 c 0
 275 454 313 464 339 476 c 1
 334 546 292 641 239 641 c 0
EndSplineSet
Colour: ffda6b
EndChar

StartChar: _.sing.backslash
Encoding: 65624 -1 88
GlifName: _.sing.backslash
Width: 551
VWidth: 1197
GlyphClass: 2
Flags: HMW
LayerCount: 2
Fore
SplineSet
50 770 m 0
 50 790 59 800 76 800 c 0
 82 800 95 790 113 770 c 0
 178 686 250 574 326 432 c 0
 402 290 460 162 501 50 c 1
 501 40 l 2
 501 20 492 11 477 11 c 0
 463 11 444 24 439 34 c 0
 338 268 213 502 60 737 c 0
 53 749 50 760 50 770 c 0
EndSplineSet
Colour: ffda6b
EndChar

StartChar: _.sing.slash
Encoding: 65625 -1 89
GlifName: _.sing.slash
Width: 551
VWidth: 1197
GlyphClass: 2
Flags: HMW
LayerCount: 2
Fore
SplineSet
50 40 m 0
 50 49 53 62 60 74 c 0
 213 309 338 543 439 777 c 0
 444 787 463 800 477 800 c 0
 492 800 501 790 501 770 c 2
 501 761 l 1
 460 649 402 521 326 378 c 0
 250 236 178 124 113 40 c 0
 95 20 82 11 76 11 c 0
 59 11 50 20 50 40 c 0
EndSplineSet
Colour: ffda6b
EndChar

StartChar: _.sing.tajob
Encoding: 65626 -1 90
GlifName: _.sing.tajob
Width: 242
VWidth: 1197
GlyphClass: 2
Flags: HMW
LayerCount: 2
Fore
SplineSet
50 68 m 0
 50 107 81 139 120 139 c 0
 159 139 192 107 192 68 c 0
 192 29 159 -4 120 -4 c 0
 81 -4 50 29 50 68 c 0
67 679 m 1
 67 717 94 739 120 739 c 0
 145 739 169 720 171 679 c 1
 166 557 153 340 142 218 c 0
 140 213 130 210 121 210 c 0
 112 210 104 213 103 218 c 0
 94 357 74 556 67 679 c 1
EndSplineSet
Colour: ffda6b
EndChar

StartChar: _.sing.soal
Encoding: 65627 -1 91
GlifName: _.sing.soal
Width: 437
VWidth: 1304
GlyphClass: 2
Flags: HMW
LayerCount: 2
Fore
SplineSet
50 573 m 0
 50 671 130 752 231 752 c 0
 278 752 328 734 378 694 c 1
 384 691 387 686 387 680 c 0
 387 656 350 612 330 612 c 0
 328 612 327 612 326 613 c 0
 304 634 270 645 238 645 c 0
 189 645 143 621 143 578 c 0
 143 549 164 510 222 464 c 0
 278 418 310 373 310 329 c 0
 310 274 260 221 149 170 c 1
 130 197 l 1
 185 250 218 284 218 314 c 0
 218 332 206 349 178 369 c 0
 87 432 50 507 50 573 c 0
145 71 m 0
 145 105 171 134 207 134 c 0
 246 134 267 102 267 70 c 0
 267 39 248 8 209 8 c 0
 173 8 145 35 145 71 c 0
EndSplineSet
Colour: ffda6b
EndChar

StartChar: _.sing.beezafeh
Encoding: 65628 -1 92
GlifName: _.sing.beezafeh
Width: 558
VWidth: 1352
GlyphClass: 2
Flags: HMW
LayerCount: 2
Fore
SplineSet
50 236 m 0
 50 258 59 280 79 280 c 2
 239 280 l 1
 239 439 l 2
 239 459 262 469 285 469 c 0
 307 469 329 459 329 439 c 2
 329 280 l 1
 479 280 l 2
 498 280 508 258 508 235 c 0
 508 213 499 191 479 191 c 2
 329 191 l 1
 329 39 l 2
 329 20 306 11 284 11 c 0
 262 11 239 20 239 39 c 2
 239 191 l 1
 79 191 l 2
 60 191 50 213 50 236 c 0
EndSplineSet
Colour: ffda6b
EndChar

StartChar: _.sing.menha
Encoding: 65629 -1 93
GlifName: _.sing.menha
Width: 558
VWidth: 0
GlyphClass: 2
Flags: HMW
LayerCount: 2
Fore
SplineSet
50 236 m 0
 50 258 59 280 79 280 c 2
 479 280 l 2
 498 280 508 258 508 235 c 0
 508 213 499 191 479 191 c 2
 79 191 l 2
 60 191 50 213 50 236 c 0
EndSplineSet
Colour: ffda6b
EndChar

StartChar: _.sing.virgul
Encoding: 65631 -1 95
GlifName: _.sing.virgul
Width: 239
VWidth: 1197
GlyphClass: 2
Flags: HMW
LayerCount: 2
Fore
SplineSet
50 94 m 0
 50 149 88 214 173 241 c 1
 182 208 l 1
 155 197 116 159 117 125 c 1
 121 126 126 127 130 127 c 0
 161 127 189 100 189 70 c 0
 189 36 163 10 124 10 c 0
 76 10 50 48 50 94 c 0
EndSplineSet
Colour: ffda6b
EndChar

StartChar: _.sing.dot_virgul
Encoding: 65632 -1 96
GlifName: _.sing.dot_virgul
Width: 242
VWidth: 1304
GlyphClass: 2
Flags: HMW
LayerCount: 2
Fore
SplineSet
50 82 m 0
 50 121 82 154 121 154 c 0
 160 154 192 121 192 82 c 0
 192 44 160 12 121 12 c 0
 82 12 50 44 50 82 c 0
51 285 m 0
 51 339 88 404 173 431 c 1
 183 399 l 1
 156 387 118 349 119 315 c 1
 124 316 128 317 133 317 c 0
 163 317 189 291 189 261 c 0
 189 227 164 200 125 200 c 0
 77 200 51 239 51 285 c 0
EndSplineSet
Colour: ffda6b
EndChar

StartChar: _.sing.2noqte
Encoding: 65633 -1 97
GlifName: _.sing.2noqte
Width: 242
VWidth: 1352
GlyphClass: 2
Flags: HMW
LayerCount: 2
Fore
SplineSet
50 82 m 0
 50 121 82 154 121 154 c 0
 160 154 192 121 192 82 c 0
 192 44 160 12 121 12 c 0
 82 12 50 44 50 82 c 0
50 303 m 0
 50 342 82 374 121 374 c 0
 160 374 192 342 192 303 c 0
 192 264 160 232 121 232 c 0
 82 232 50 264 50 303 c 0
EndSplineSet
Colour: ffda6b
EndChar

StartChar: _.sing.noqte
Encoding: 65634 -1 98
GlifName: _.sing.noqte
Width: 242
VWidth: 1352
GlyphClass: 2
Flags: HMW
LayerCount: 2
Fore
SplineSet
50 71 m 0
 50 110 81 141 120 141 c 0
 159 141 192 110 192 71 c 0
 192 32 159 0 120 -0 c 0
 81 0 50 32 50 71 c 0
EndSplineSet
Colour: ffda6b
EndChar

StartChar: _.sing.gheiomeh.right
Encoding: 65635 -1 99
GlifName: _.sing.gheiomeh.right
Width: 370
VWidth: 1352
GlyphClass: 2
Flags: HMW
LayerCount: 2
Fore
SplineSet
50 235 m 0
 50 320 83 406 164 454 c 0
 170 455 176 443 175 442 c 0
 135 376 118 303 118 233 c 0
 118 152 141 73 180 12 c 0
 181 10 177 -1 168 -0 c 0
 97 35 50 134 50 235 c 0
190 235 m 0
 190 320 224 406 305 454 c 0
 311 455 316 443 315 442 c 0
 276 376 258 304 258 234 c 0
 258 153 281 73 319 12 c 0
 321 10 317 -1 308 -0 c 0
 237 35 190 134 190 235 c 0
EndSplineSet
Colour: ffda6b
EndChar

StartChar: _.sing.gheiomeh.left
Encoding: 65636 -1 100
GlifName: _.sing.gheiomeh.left
Width: 370
VWidth: 1352
GlyphClass: 2
Flags: HMW
LayerCount: 2
Fore
SplineSet
51 12 m 0
 89 74 112 152 112 234 c 0
 112 304 95 377 55 442 c 0
 54 443 59 455 65 454 c 0
 146 406 180 320 180 235 c 0
 180 134 133 35 62 -0 c 0
 55 -1 49 10 51 12 c 0
190 12 m 0
 229 74 252 152 252 234 c 0
 252 304 235 377 196 442 c 0
 195 443 200 455 206 454 c 0
 287 406 320 320 320 235 c 0
 320 134 273 35 202 -0 c 0
 193 -1 189 10 190 12 c 0
EndSplineSet
Colour: ffda6b
EndChar

StartChar: _.sing.parantez.right
Encoding: 65637 -1 101
GlifName: _.sing.parantez.right
Width: 308
VWidth: 1352
GlyphClass: 2
Flags: HMW
LayerCount: 2
Fore
SplineSet
50 397 m 0
 50 550 108 704 220 800 c 1
 257 775 l 1
 175 678 133 539 133 399 c 0
 133 260 174 120 258 24 c 1
 221 -0 l 1
 106 94 50 245 50 397 c 0
EndSplineSet
Colour: ffda6b
EndChar

StartChar: _.sing.parantez.left
Encoding: 65638 -1 102
GlifName: _.sing.parantez.left
Width: 308
VWidth: 1352
GlyphClass: 2
Flags: HMW
LayerCount: 2
Fore
SplineSet
50 24 m 1
 134 120 175 260 175 399 c 0
 175 539 133 678 51 775 c 1
 88 800 l 1
 200 704 258 550 258 397 c 0
 258 245 202 94 87 -0 c 1
 50 24 l 1
EndSplineSet
Colour: ffda6b
EndChar

StartChar: _.sing.koroshe.right
Encoding: 65641 -1 105
GlifName: _.sing.koroshe.right
Width: 280
VWidth: 1197
GlyphClass: 2
Flags: HMW
LayerCount: 2
Fore
SplineSet
50 -61 m 1
 50 800 l 1
 230 800 l 1
 230 740 l 1
 130 740 l 1
 130 -0 l 1
 230 -0 l 1
 230 -61 l 1
 50 -61 l 1
EndSplineSet
Colour: ffda6b
EndChar

StartChar: _.sing.koroshe.left
Encoding: 65642 -1 106
GlifName: _.sing.koroshe.left
Width: 280
VWidth: 1197
GlyphClass: 2
Flags: HMW
LayerCount: 2
Fore
SplineSet
50 -0 m 1
 150 -0 l 1
 150 740 l 1
 50 740 l 1
 50 800 l 1
 230 800 l 1
 230 -61 l 1
 50 -61 l 1
 50 -0 l 1
EndSplineSet
Colour: ffda6b
EndChar

StartChar: _.sing.akolad.right
Encoding: 65643 -1 107
GlifName: _.sing.akolad.right
Width: 357
VWidth: 1197
GlyphClass: 2
Flags: HMW
LayerCount: 2
Fore
SplineSet
50 346 m 1
 50 364 50 383 50 401 c 1
 116 402 126 432 126 500 c 2
 126 676 l 2
 126 800 178 800 307 800 c 1
 307 751 l 1
 232 751 210 747 210 682 c 2
 210 502 l 2
 210 436 194 388 135 373 c 1
 194 359 210 312 210 244 c 2
 210 64 l 2
 210 -1 232 -4 307 -5 c 1
 307 -54 l 1
 178 -54 126 -54 126 70 c 2
 126 246 l 2
 126 314 116 344 50 346 c 1
EndSplineSet
Colour: ffda6b
EndChar

StartChar: _.sing.akolad.left
Encoding: 65644 -1 108
GlifName: _.sing.akolad.left
Width: 357
VWidth: 1197
GlyphClass: 2
Flags: HMW
LayerCount: 2
Fore
SplineSet
50 -5 m 1
 125 -4 147 -1 147 64 c 2
 147 244 l 2
 147 312 162 359 221 373 c 1
 162 388 147 436 147 502 c 2
 147 682 l 2
 147 747 125 751 50 751 c 1
 50 800 l 1
 178 800 230 800 230 676 c 2
 230 500 l 2
 230 432 239 402 307 401 c 1
 307 383 307 364 307 346 c 1
 239 344 230 314 230 246 c 2
 230 70 l 2
 230 -54 178 -54 50 -54 c 1
 50 -5 l 1
EndSplineSet
Colour: ffda6b
EndChar

StartChar: _.mark.maad
Encoding: 65645 -1 109
GlifName: _.mark.maad
Width: 0
VWidth: 1352
GlyphClass: 2
Flags: HMW
LayerCount: 2
Fore
SplineSet
0 -1 m 1
 12 58 38 70 70 70 c 0
 92 70 115 64 139 64 c 0
 159 64 180 69 198 84 c 1
 180 29 151 17 120 17 c 0
 96 17 71 24 49 24 c 0
 30 24 12 19 0 -1 c 1
EndSplineSet
Colour: ffda6b
EndChar

StartChar: _.mark.fatheh
Encoding: 65646 -1 110
GlifName: _.mark.fatheh
Width: 0
VWidth: 2310
GlyphClass: 2
Flags: HMW
LayerCount: 2
Fore
SplineSet
0 -3 m 1
 0 45 l 1
 199 112 l 1
 199 65 l 1
 0 -3 l 1
EndSplineSet
Colour: ffda6b
EndChar

StartChar: _.mark.kasreh
Encoding: 65647 -1 111
GlifName: _.mark.kasreh
Width: 0
VWidth: 2384
GlyphClass: 2
Flags: HMW
LayerCount: 2
Fore
SplineSet
0 -69 m 1
 197 -4 l 1
 197 -49 l 1
 0 -116 l 1
 0 -69 l 1
EndSplineSet
Colour: ffda6b
EndChar

StartChar: _.mark.zameh
Encoding: 65648 -1 112
GlifName: _.mark.zameh
Width: 0
VWidth: 2277
GlyphClass: 2
Flags: HMW
LayerCount: 2
Fore
SplineSet
127 265 m 0
 156 265 185 235 185 181 c 0
 185 159 179 137 169 119 c 1
 179 118 188 117 199 116 c 1
 185 66 l 1
 167 68 149 71 134 75 c 1
 96 37 43 11 16 -0 c 1
 0 50 l 1
 34 64 63 79 85 93 c 1
 49 113 36 140 36 166 c 0
 36 216 85 265 127 265 c 0
71 177 m 0
 71 160 86 140 127 128 c 1
 143 144 150 157 150 166 c 0
 145 201 127 214 110 214 c 0
 90 214 71 197 71 177 c 0
EndSplineSet
Colour: ffda6b
EndChar

StartChar: _.mark.tanvin_fatheh
Encoding: 65649 -1 113
GlifName: _.mark.tanvin_fatheh
Width: 0
VWidth: 2280
GlyphClass: 2
Flags: HMW
LayerCount: 2
Fore
SplineSet
0 -3 m 1
 0 45 l 1
 199 112 l 1
 199 65 l 1
 0 -3 l 1
0 82 m 1
 0 129 l 1
 199 196 l 1
 199 149 l 1
 0 82 l 1
EndSplineSet
Colour: ffda6b
EndChar

StartChar: _.mark.tanvin_kasreh
Encoding: 65650 -1 114
GlifName: _.mark.tanvin_kasreh
Width: 0
VWidth: 2413
GlyphClass: 2
Flags: HMW
LayerCount: 2
Fore
SplineSet
0 -67 m 1
 199 -0 l 1
 199 -47 l 1
 0 -113 l 1
 0 -67 l 1
0 -152 m 1
 199 -84 l 1
 199 -132 l 1
 0 -198 l 1
 0 -152 l 1
EndSplineSet
Colour: ffda6b
EndChar

StartChar: _.mark.tanvin_zameh
Encoding: 65651 -1 115
GlifName: _.mark.tanvin_zameh
Width: 0
VWidth: 2273
GlyphClass: 2
Flags: HMW
LayerCount: 2
Fore
SplineSet
0 130 m 0
 0 184 39 236 117 285 c 1
 148 285 l 1
 148 283 l 1
 79 230 47 189 47 161 c 0
 47 133 62 118 94 114 c 1
 90 83 76 69 49 69 c 0
 22 70 0 100 0 130 c 0
168 231 m 0
 193 231 219 205 219 158 c 0
 219 138 213 120 204 103 c 1
 213 102 221 102 231 101 c 1
 219 58 l 1
 202 59 189 61 175 65 c 1
 142 32 96 10 71 -0 c 1
 58 43 l 1
 88 57 112 69 132 81 c 1
 101 98 89 121 89 144 c 0
 89 188 131 231 168 231 c 0
120 154 m 0
 120 139 133 122 169 111 c 1
 183 126 188 136 188 145 c 0
 184 175 169 187 154 187 c 0
 137 187 120 172 120 154 c 0
EndSplineSet
Colour: ffda6b
EndChar

StartChar: _.mark.tashdid
Encoding: 65652 -1 116
GlifName: _.mark.tashdid
Width: 0
VWidth: 1833
GlyphClass: 2
Flags: HMW
LayerCount: 2
Fore
SplineSet
0 77 m 0
 0 88 2 99 5 111 c 1
 34 132 l 1
 32 122 32 112 32 104 c 0
 32 70 46 53 60 53 c 0
 73 53 86 68 86 97 c 0
 86 108 84 120 80 135 c 1
 109 150 l 1
 121 100 139 82 153 82 c 0
 164 82 172 94 172 112 c 0
 172 126 167 144 154 162 c 1
 183 191 l 1
 204 157 213 125 213 98 c 0
 213 52 187 22 155 22 c 0
 142 22 130 27 116 37 c 1
 100 10 79 -2 60 -2 c 0
 28 -2 0 31 0 77 c 0
EndSplineSet
Colour: ffda6b
EndChar

StartChar: _.mark.hamze
Encoding: 65653 -1 117
GlifName: _.mark.hamze
Width: 0
VWidth: 1841
GlyphClass: 2
Flags: HMW
LayerCount: 2
Fore
SplineSet
110 210 m 0
 149 210 171 175 171 155 c 0
 171 148 168 143 163 143 c 0
 161 143 158 144 154 146 c 0
 147 149 124 155 100 155 c 0
 74 155 40 149 40 124 c 0
 40 91 142 91 195 90 c 1
 193 84 184 70 170 48 c 1
 102 33 48 12 7 -6 c 1
 15 33 l 1
 21 38 38 45 49 49 c 1
 49 52 l 1
 16 62 0 78 0 101 c 0
 0 156 59 210 110 210 c 0
EndSplineSet
Colour: ffda6b
EndChar

StartChar: _.mark.sakon
Encoding: 65654 -1 118
GlifName: _.mark.sakon
Width: 0
VWidth: 2099
GlyphClass: 2
Flags: HMW
LayerCount: 2
Fore
SplineSet
102 200 m 0
 148 200 174 173 174 125 c 0
 174 53 122 -1 41 -1 c 1
 27 13 l 1
 87 46 127 82 144 116 c 1
 131 123 117 125 104 125 c 0
 70 125 38 105 16 76 c 1
 0 82 l 1
 0 165 54 200 102 200 c 0
EndSplineSet
Colour: ffda6b
EndChar

StartChar: _.mark.alef
Encoding: 65655 -1 119
GlifName: _.mark.alef
Width: 0
VWidth: 2091
GlyphClass: 2
Flags: HMW
LayerCount: 2
Fore
SplineSet
0 186 m 1
 46 240 l 1
 60 180 71 110 71 69 c 0
 71 30 40 10 31 -0 c 1
 31 42 20 111 0 186 c 1
EndSplineSet
Colour: ffda6b
EndChar

StartChar: _.sing.momaiez
Encoding: 65656 -1 120
GlifName: _.sing.momaiez
Width: 375
VWidth: 1352
GlyphClass: 2
Flags: HMW
LayerCount: 2
Fore
SplineSet
50 -105 m 1
 272 402 l 1
 325 402 l 1
 99 -115 l 1
 50 -105 l 1
EndSplineSet
Colour: ffda6b
EndChar

StartChar: _.sing.darsad
Encoding: 65658 -1 122
GlifName: _.sing.darsad
Width: 577
VWidth: 1197
GlyphClass: 2
Flags: HMW
LayerCount: 2
Fore
SplineSet
50 631 m 0
 50 673 82 706 125 706 c 0
 172 706 197 667 197 629 c 0
 197 592 174 556 128 556 c 0
 84 556 50 589 50 631 c 0
67 28 m 0
 67 43 71 56 78 65 c 0
 231 298 358 533 459 768 c 0
 465 783 475 791 487 791 c 0
 508 791 519 780 519 757 c 2
 519 753 l 1
 487 659 431 542 355 394 c 0
 279 248 204 126 129 34 c 0
 113 14 99 5 87 5 c 0
 73 5 67 13 67 28 c 0
380 151 m 0
 380 193 413 226 455 226 c 0
 503 226 527 187 527 149 c 0
 527 112 504 76 457 76 c 0
 414 76 380 109 380 151 c 0
EndSplineSet
Colour: ffda6b
EndChar

StartChar: _.sing.mosavi
Encoding: 65659 -1 123
GlifName: _.sing.mosavi
Width: 558
VWidth: 1197
GlyphClass: 2
Flags: HMW
LayerCount: 2
Fore
SplineSet
50 176 m 0
 50 198 59 220 79 220 c 2
 479 220 l 2
 498 220 508 198 508 175 c 0
 508 153 499 130 479 130 c 2
 79 130 l 2
 60 130 50 153 50 176 c 0
50 356 m 0
 50 378 59 400 79 400 c 2
 479 400 l 2
 498 400 508 377 508 354 c 0
 508 332 499 310 479 310 c 2
 79 310 l 2
 60 310 50 333 50 356 c 0
EndSplineSet
Colour: ffda6b
EndChar

StartChar: _.beh_k.init
Encoding: 65661 -1 125
GlifName: _.beh_k.init
Width: 264
VWidth: 1197
GlyphClass: 2
UnlinkRmOvrlpSave: 1
Flags: HMW
LayerCount: 2
Fore
SplineSet
-50 49 m 0
 -50 76 -28 100 -2 100 c 0
 59 100 105 113 136 144 c 1
 130 185 112 229 85 271 c 1
 133 369 l 1
 177 301 200 241 200 185 c 0
 200 157 195 130 184 104 c 0
 157 30 91 0 -1 -0 c 0
 -25 0 -50 24 -50 49 c 0
EndSplineSet
Colour: ffda6b
EndChar

StartChar: _.beh_k.medi
Encoding: 65662 -1 126
GlifName: _.beh_k.medi
Width: 314
VWidth: 1304
GlyphClass: 2
UnlinkRmOvrlpSave: 1
Flags: HMW
LayerCount: 2
Fore
SplineSet
-50 48 m 0
 -50 75 -27 100 -1 100 c 0
 46 100 101 108 137 144 c 1
 159 266 l 1
 204 256 l 1
 191 133 l 1
 229 105 284 100 314 100 c 1
 314 -0 l 1
 270 0 200 9 158 58 c 1
 119 10 57 0 -1 -0 c 0
 -26 0 -50 23 -50 48 c 0
EndSplineSet
Colour: ffda6b
EndChar

StartChar: _.sing.3noqte
Encoding: 65663 -1 127
GlifName: _.sing.3noqte
Width: 557
VWidth: 1304
GlyphClass: 2
Flags: HMW
LayerCount: 2
Fore
SplineSet
50 60 m 0
 50 87 72 109 99 109 c 0
 127 109 150 87 150 60 c 0
 150 32 127 10 99 10 c 0
 72 10 50 32 50 60 c 0
212 66 m 0
 212 98 238 124 269 124 c 0
 301 124 327 98 327 66 c 0
 327 35 301 10 269 10 c 0
 238 10 212 35 212 66 c 0
379 74 m 0
 379 110 407 138 443 138 c 0
 479 138 507 110 507 74 c 0
 507 40 479 10 443 10 c 0
 407 10 379 40 379 74 c 0
EndSplineSet
Colour: ffda6b
EndChar

StartChar: s.khat_tire
Encoding: 8208 8208 138
GlifName: s.khat_tire
Width: 504
VWidth: 0
GlyphClass: 2
Flags: HMW
LayerCount: 2
Fore
SplineSet
55 229 m 1
 55 307 l 1
 451 307 l 1
 451 229 l 1
 55 229 l 1
EndSplineSet
Colour: d7d7d7
EndChar

StartChar: s.zwj
Encoding: 8205 8205 174
GlifName: s.zwj
Width: 0
VWidth: 1331
GlyphClass: 2
Flags: HMW
LayerCount: 2
Fore
SplineSet
25 -327 m 1
 -25 -327 l 1
 -25 579 l 1
 -111 491 l 1
 -141 521 l 1
 -30 631 l 1
 -141 740 l 1
 -111 772 l 1
 0 660 l 1
 111 772 l 1
 141 740 l 1
 30 631 l 1
 141 521 l 1
 111 491 l 1
 25 579 l 1
 25 -327 l 1
EndSplineSet
Colour: d7d7d7
EndChar

StartChar: s.tagsim
Encoding: 247 247 182
GlifName: s.tagsim
Width: 564
VWidth: 1278
GlyphClass: 2
Flags: HMW
LayerCount: 2
Fore
SplineSet
59 352 m 1
 59 429 l 1
 506 429 l 1
 506 352 l 1
 59 352 l 1
234 204 m 1
 234 299 l 1
 330 299 l 1
 330 204 l 1
 234 204 l 1
234 482 m 1
 234 577 l 1
 330 577 l 1
 330 482 l 1
 234 482 l 1
EndSplineSet
Colour: d7d7d7
EndChar

StartChar: s.zwnj
Encoding: 8204 8204 215
GlifName: s.zwnj
Width: 0
VWidth: 1331
GlyphClass: 2
Flags: HMW
LayerCount: 2
Fore
SplineSet
-25 -308 m 1
 -25 710 l 1
 25 710 l 1
 25 -308 l 1
 -25 -308 l 1
EndSplineSet
Colour: d7d7d7
EndChar

StartChar: s.dotted_circle
Encoding: 9676 9676 220
GlifName: s.dotted_circle
Width: 576
VWidth: 1890
GlyphClass: 2
Flags: HMW
LayerCount: 2
Fore
SplineSet
60 181 m 128
 60 196 67 203 82 203 c 128
 97 203 104 196 104 182 c 2
 104 180 l 2
 104 166 97 159 82 159 c 128
 67 159 60 166 60 181 c 128
76 103 m 128
 76 118 83 126 98 126 c 128
 113 126 120 118 120 103 c 128
 120 88 113 80 98 80 c 128
 83 80 76 88 76 103 c 128
76 259 m 128
 76 274 83 282 98 282 c 128
 113 282 120 274 120 259 c 128
 120 244 113 236 99 236 c 0
 84 236 76 244 76 259 c 128
120 34 m 128
 120 49 127 56 142 57 c 0
 157 56 164 49 165 34 c 0
 164 19 157 12 142 12 c 128
 127 12 120 19 120 34 c 128
120 326 m 128
 120 341 127 348 142 349 c 0
 157 348 164 341 165 326 c 0
 164 311 157 304 142 304 c 128
 127 304 120 311 120 326 c 128
187 -8 m 128
 187 7 195 14 210 14 c 128
 225 14 233 7 233 -8 c 128
 233 -23 225 -30 210 -30 c 128
 195 -30 187 -23 187 -8 c 128
187 372 m 128
 187 387 195 394 210 394 c 128
 225 394 233 387 233 372 c 128
 233 357 225 350 210 350 c 128
 195 350 187 357 187 372 c 128
310 -26 m 128
 310 -41 303 -48 288 -48 c 128
 273 -48 266 -41 265 -26 c 0
 266 -11 273 -4 288 -3 c 0
 303 -4 310 -11 310 -26 c 128
288 410 m 128
 303 410 310 403 310 388 c 128
 310 373 303 366 288 365 c 0
 273 366 266 373 265 388 c 0
 266 403 273 410 288 410 c 128
344 -8 m 0
 344 7 352 14 367 14 c 128
 382 14 390 7 390 -8 c 0
 390 -23 382 -30 367 -31 c 0
 352 -30 344 -23 344 -8 c 0
344 372 m 0
 344 387 352 394 367 394 c 128
 382 394 390 387 390 372 c 0
 390 357 382 350 367 349 c 0
 352 350 344 357 344 372 c 0
412 34 m 128
 412 49 419 56 434 57 c 0
 449 56 456 49 456 34 c 128
 456 19 449 12 434 12 c 128
 419 12 412 19 412 34 c 128
412 326 m 128
 412 341 419 348 434 349 c 0
 449 348 456 341 456 326 c 128
 456 311 449 304 434 304 c 128
 419 304 412 311 412 326 c 128
456 103 m 128
 456 118 463 126 478 126 c 0
 493 126 500 118 501 103 c 0
 500 88 493 80 478 80 c 0
 463 80 456 88 456 103 c 128
456 259 m 128
 456 274 463 282 478 282 c 0
 493 282 500 274 501 259 c 0
 500 244 493 236 478 236 c 0
 463 236 456 244 456 259 c 128
472 181 m 128
 472 196 479 203 494 203 c 128
 509 203 516 196 517 182 c 1
 517 180 l 1
 516 166 509 159 494 159 c 128
 479 159 472 166 472 181 c 128
EndSplineSet
Colour: d7d7d7
EndChar

StartChar: s.figure_dash
Encoding: 8210 8210 224
GlifName: s.figure_dash
Width: 600
VWidth: 0
GlyphClass: 2
Flags: HMW
LayerCount: 2
Fore
SplineSet
55 229 m 1
 55 307 l 1
 547 307 l 1
 547 229 l 1
 55 229 l 1
EndSplineSet
Colour: d7d7d7
EndChar

StartChar: s.em_dash
Encoding: 8212 8212 263
GlifName: s.em_dash
Width: 1200
VWidth: 1175
GlyphClass: 2
Flags: HMW
LayerCount: 2
Fore
SplineSet
55 229 m 1
 55 307 l 1
 1147 307 l 1
 1147 229 l 1
 55 229 l 1
EndSplineSet
Colour: d7d7d7
EndChar

StartChar: s.bullet
Encoding: 8226 8226 278
GlifName: s.bullet
Width: 602
VWidth: 1331
GlyphClass: 2
Flags: HMW
LayerCount: 2
Fore
SplineSet
532 432 m 0
 532 307 427 202 302 202 c 0
 189 202 77 305 77 410 c 0
 77 564 184 650 295 650 c 0
 442 650 532 564 532 432 c 0
EndSplineSet
Colour: d7d7d7
EndChar

StartChar: s.en_dash
Encoding: 8211 8211 310
GlifName: s.en_dash
Width: 600
VWidth: 1175
GlyphClass: 2
Flags: HMW
LayerCount: 2
Fore
SplineSet
55 229 m 1
 55 307 l 1
 547 307 l 1
 547 229 l 1
 55 229 l 1
EndSplineSet
Colour: d7d7d7
EndChar

StartChar: s.horizontal_bar
Encoding: 8213 8213 316
GlifName: s.horizontal_bar
Width: 2400
VWidth: 1175
GlyphClass: 2
Flags: HMW
LayerCount: 2
Fore
SplineSet
55 229 m 1
 55 307 l 1
 2347 307 l 1
 2347 229 l 1
 55 229 l 1
EndSplineSet
Colour: d7d7d7
EndChar

StartChar: s.lrm
Encoding: 8206 8206 317
GlifName: s.lrm
Width: 0
VWidth: 1331
GlyphClass: 2
Flags: HMW
LayerCount: 2
Fore
SplineSet
-25 -308 m 1
 -25 676 l 1
 196 676 l 1
 106 759 l 1
 138 790 l 1
 280 651 l 1
 138 510 l 1
 106 544 l 1
 196 628 l 1
 22 628 l 1
 22 -308 l 1
 -25 -308 l 1
EndSplineSet
Colour: d7d7d7
EndChar

StartChar: s.rlm
Encoding: 8207 8207 346
GlifName: s.rlm
Width: 0
VWidth: 1331
GlyphClass: 2
Flags: HMW
LayerCount: 2
Fore
SplineSet
22 676 m 1
 22 -308 l 1
 -25 -308 l 1
 -25 628 l 1
 -196 628 l 1
 -108 544 l 1
 -138 510 l 1
 -280 651 l 1
 -138 790 l 1
 -108 759 l 1
 -196 676 l 1
 22 676 l 1
EndSplineSet
Colour: d7d7d7
EndChar

StartChar: _.mark.he_yeh
Encoding: 65664 -1 400
GlifName: _.mark.he_yeh
Width: 209
VWidth: 1304
GlyphClass: 1
UnlinkRmOvrlpSave: 1
Flags: HMW
LayerCount: 2
Fore
SplineSet
192 89 m 2
 192 90 l 2
 192 95 184 100 167 104 c 128
 150 108 142 109 141 109 c 0
 122 114 113 124 113 141 c 0
 113 176 135 207 178 234 c 0
 191 241 202 245 210 245 c 1
 210 200 l 1
 186 200 165 187 147 162 c 1
 145 156 l 1
 145 153 156 146 180 138 c 128
 204 130 218 124 221 120 c 128
 224 116 226 107 226 92 c 128
 226 77 219 62 206 49 c 0
 169 12 101 -6 0 -6 c 1
 17 42 l 1
 96 42 150 53 178 75 c 0
 187 82 192 87 192 89 c 2
EndSplineSet
EndChar

StartChar: uni0000
Encoding: 0 0 401
GlifName: uni0000
Width: 497
VWidth: 0
GlyphClass: 2
Flags: HMW
LayerCount: 2
Fore
SplineSet
59 -251 m 1
 59 709 l 1
 438 709 l 1
 438 -251 l 1
 59 -251 l 1
105 -181 m 1
 387 -181 l 1
 387 648 l 1
 105 648 l 1
 105 -181 l 1
EndSplineSet
EndChar

StartChar: _.ghaf.medi
Encoding: 65665 -1 402
GlifName: _.ghaf.medi
Width: 486
VWidth: 0
GlyphClass: 2
Flags: HMW
LayerCount: 2
Fore
SplineSet
-50 49 m 0
 -50 75 -28 100 -2 100 c 2
 10 100 l 2
 104 100 185 111 244 138 c 1
 235 217 152 298 76 361 c 2
 -1 425 l 2
 -13 435 -18 449 -18 465 c 0
 -18 515 30 582 59 596 c 1
 423 709 l 2
 425 710 427 710 429 710 c 0
 438 710 441 701 441 689 c 0
 441 661 424 616 417 614 c 2
 61 503 l 1
 135 442 l 2
 175 410 214 372 245 330 c 0
 337 208 344 100 486 100 c 1
 486 -0 l 1
 375 0 328 41 287 103 c 1
 283 92 278 84 271 75 c 0
 213 16 131 0 12 -0 c 2
 -1 -0 l 1
 -25 1 -50 24 -50 49 c 0
67 651 m 1
 85 705 l 1
 401 800 l 1
 383 748 l 1
 67 651 l 1
EndSplineSet
Colour: ffda6b
EndChar

StartChar: _.ghaf.init
Encoding: 65666 -1 403
GlifName: _.ghaf.init
Width: 505
VWidth: 0
GlyphClass: 2
Flags: HMW
LayerCount: 2
Fore
SplineSet
-50 49 m 0
 -50 75 -28 100 -2 100 c 2
 10 100 l 2
 104 100 185 111 244 138 c 1
 235 217 152 298 76 361 c 2
 -1 425 l 2
 -13 435 -18 449 -18 465 c 0
 -18 515 30 582 59 596 c 1
 423 709 l 2
 425 710 427 710 429 710 c 0
 438 710 441 701 441 689 c 0
 441 661 424 616 417 614 c 2
 61 503 l 1
 135 442 l 2
 218 373 300 290 300 179 c 0
 300 139 291 99 271 75 c 0
 213 16 131 0 12 -0 c 2
 -1 -0 l 1
 -25 1 -50 24 -50 49 c 0
67 651 m 1
 85 705 l 1
 401 800 l 1
 383 748 l 1
 67 651 l 1
EndSplineSet
Colour: ffda6b
EndChar

StartChar: l.allah.ref1
Encoding: 65667 -1 404
Width: 1300
VWidth: 0
GlyphClass: 2
Flags: H
HStem: 0 100<416.807 535.903 655.019 731>
VStem: 560 71<124 315.817>
LayerCount: 2
Fore
SplineSet
460 100 m 0
 524 100 557 132 560 196 c 1
 530 591 l 1
 612 668 l 1
 631 200 l 1
 631 196 l 1
 633 132 666 100 731 100 c 1
 731 0 l 1
 669 0 624 19 596 58 c 1
 567 19 522 0 460 0 c 0
 448 0 437 5 426 16 c 0
 415 27 410 38 410 50 c 0
 411 62 416 73 426 84 c 0
 436 95 447 100 460 100 c 0
EndSplineSet
Comment: "l.allah had both contours and references, so the contours were moved into this glyph, and a reference to it was added in the original."
Colour: ff8080
EndChar

StartChar: _.la.isol.fa
Encoding: 65668 -1 405
Width: 531
VWidth: 0
GlyphClass: 2
Flags: HW
LayerCount: 2
Fore
SplineSet
64 128 m 1
 113 107 168 100 206 100 c 0
 309 100 361 127 404 187 c 1
 377 575 l 2
 376 606 408 661 435 700 c 1
 448 690 l 1
 467 172 l 1
 440 66 363 0 230 -0 c 0
 146 0 121 50 64 128 c 1
93 500 m 0
 93 527 96 558 101 585 c 1
 117 581 l 1
 182 453 244 354 271 264 c 0
 274 255 276 243 276 229 c 0
 276 203 266 170 231 140 c 1
 232 147 233 155 233 162 c 0
 233 208 211 256 191 294 c 0
 168 338 137 382 101 445 c 0
 95 458 93 478 93 500 c 0
EndSplineSet
Colour: ffda6b
EndChar

StartChar: _.la.fina.fa
Encoding: 65669 -1 406
Width: 608
VWidth: 0
GlyphClass: 2
Flags: HW
LayerCount: 2
Fore
SplineSet
64 128 m 1
 113 107 167 100 204 100 c 0
 306 100 358 125 401 184 c 1
 374 575 l 2
 373 606 405 661 432 700 c 1
 446 690 l 1
 462 232 l 1
 468 114 544 100 608 100 c 1
 608 -0 l 1
 507 0 453 40 432 95 c 1
 393 36 326 0 230 -0 c 0
 146 0 121 50 64 128 c 1
90 500 m 0
 90 527 93 558 98 585 c 1
 114 581 l 1
 179 453 241 354 268 264 c 0
 271 255 274 243 274 229 c 0
 274 203 264 170 229 140 c 1
 230 147 231 155 231 162 c 0
 231 208 208 256 188 294 c 0
 165 338 134 382 98 445 c 0
 92 458 90 478 90 500 c 0
EndSplineSet
Colour: ffda6b
EndChar

StartChar: _.sing.alef_maad
Encoding: 65672 -1 409
Width: 443
VWidth: 1352
GlyphClass: 2
Flags: HW
LayerCount: 2
Fore
SplineSet
257 8 m 0
 228 8 198 12 169 12 c 0
 121 12 78 2 50 -45 c 1
 75 79 132 100 194 100 c 0
 225 100 256 96 288 96 c 0
 337 96 365 102 393 124 c 1
 362 28 312 8 257 8 c 0
EndSplineSet
Colour: ffda6b
EndChar

StartChar: _.sing.star
Encoding: 65673 -1 410
Width: 461
VWidth: 1197
GlyphClass: 2
Flags: HW
LayerCount: 2
Fore
SplineSet
50 496 m 1
 59 496 l 1
 64 482 76 476 96 474 c 0
 149 469 189 445 220 402 c 1
 216 402 l 2
 214 402 212 403 209 403 c 0
 194 403 167 399 146 399 c 0
 88 399 50 438 50 496 c 1
52 290 m 1
 56 296 l 1
 67 296 l 2
 79 296 110 342 116 348 c 0
 138 370 172 382 216 386 c 1
 220 383 l 1
 213 376 206 365 199 351 c 0
 169 298 137 271 103 271 c 0
 89 271 72 276 52 290 c 1
179 522 m 0
 179 558 198 584 232 601 c 1
 236 594 l 1
 231 589 229 582 229 573 c 0
 229 562 249 515 251 509 c 0
 252 504 252 494 252 477 c 0
 252 461 247 439 235 409 c 1
 229 409 l 1
 228 410 220 425 204 452 c 0
 188 480 179 504 179 522 c 0
209 309 m 0
 209 327 215 350 229 378 c 1
 235 378 l 1
 247 353 258 332 269 316 c 0
 279 300 284 282 284 264 c 0
 284 230 266 204 232 186 c 1
 227 193 l 1
 231 197 233 202 233 209 c 0
 233 218 212 270 210 276 c 0
 210 281 209 291 209 309 c 0
243 383 m 1
 247 388 l 1
 257 387 267 386 281 386 c 2
 317 386 l 2
 372 386 411 348 411 293 c 2
 411 290 l 1
 402 290 l 1
 398 302 380 310 348 310 c 0
 316 310 281 334 243 383 c 1
243 404 m 1
 274 442 286 513 354 513 c 0
 375 513 394 508 411 497 c 1
 406 490 l 1
 386 490 371 479 361 458 c 1
 331 419 294 400 247 400 c 1
 243 404 l 1
EndSplineSet
Colour: ffda6b
EndChar

StartChar: _.sing.zarb
Encoding: 65674 -1 411
Width: 467
VWidth: 1279
GlyphClass: 2
Flags: HW
LayerCount: 2
Fore
SplineSet
50 363 m 0
 50 387 80 416 103 416 c 0
 109 416 114 415 119 410 c 2
 234 296 l 1
 346 410 l 2
 351 415 357 416 363 416 c 0
 387 416 417 387 417 363 c 0
 417 357 415 351 410 346 c 2
 297 232 l 1
 403 127 l 2
 408 122 410 116 410 110 c 0
 410 87 380 57 357 57 c 0
 351 57 345 59 340 64 c 2
 234 170 l 1
 127 63 l 2
 122 58 117 56 111 56 c 0
 87 56 57 86 57 110 c 0
 57 116 59 122 64 127 c 2
 170 232 l 1
 57 346 l 2
 52 351 50 357 50 363 c 0
EndSplineSet
Colour: ffda6b
EndChar

StartChar: _.sing.khateh_amoodi
Encoding: 65675 -1 412
Width: 190
VWidth: 1331
GlyphClass: 2
Flags: HW
LayerCount: 2
Fore
SplineSet
50 29 m 2
 50 320 l 2
 50 339 72 349 95 349 c 0
 117 349 140 340 140 320 c 2
 140 29 l 2
 140 10 117 1 95 1 c 0
 73 1 50 10 50 29 c 2
50 480 m 2
 50 770 l 2
 50 789 72 800 95 800 c 0
 117 800 140 790 140 770 c 2
 140 480 l 2
 140 461 117 451 95 451 c 0
 73 451 50 461 50 480 c 2
EndSplineSet
Colour: ffda6b
EndChar
